SplineFontDB: 3.0
FontName: A_Thrupthi_Grand_Total
FullName: A_Thrupthi_Grand_Total
FamilyName: A_Thrupthi_Grand_Total
Weight: Regular
Copyright: Copyright (c) 2017, inemanicka
UComments: "2017-11-12: Created with FontForge (http://fontforge.org)"
Version: 001.000
ItalicAngle: 0
UnderlinePosition: -102
UnderlineWidth: 50
Ascent: 820
Descent: 204
InvalidEm: 0
LayerCount: 2
Layer: 0 0 "Back" 1
Layer: 1 0 "Fore" 0
XUID: [1021 260 -1120133661 23103]
StyleMap: 0x0000
FSType: 0
OS2Version: 0
OS2_WeightWidthSlopeOnly: 0
OS2_UseTypoMetrics: 1
CreationTime: 1510465065
ModificationTime: 1512616093
PfmFamily: 49
TTFWeight: 500
TTFWidth: 5
LineGap: 92
VLineGap: 92
OS2TypoAscent: 0
OS2TypoAOffset: 1
OS2TypoDescent: 0
OS2TypoDOffset: 1
OS2TypoLinegap: 92
OS2WinAscent: 0
OS2WinAOffset: 1
OS2WinDescent: 0
OS2WinDOffset: 1
HheadAscent: 0
HheadAOffset: 1
HheadDescent: 0
HheadDOffset: 1
OS2XHeight: 100
OS2Vendor: 'PfEd'
Lookup: 258 0 0 "Elango_one_kern" { "Elango_one_kern-1" [153,15,0] } []
MarkAttachClasses: 1
DEI: 91125
LangName: 1033
Encoding: iso8859-5
Compacted: 1
UnicodeInterp: none
NameList: AGL For New Fonts
DisplaySize: -48
AntiAlias: 1
FitToEm: 0
WidthSeparation: 77
WinInfo: 0 15 4
BeginPrivate: 0
EndPrivate
Grid
107.997070312 -1815.79003906 m 0
 343.4921875 -1815.79003906 l 1024
  Named: "lelow curve start"
110.374023438 -2128.01660156 m 4
 345.868164062 -2128.01660156 l 1028
  Named: "lerge letter ends"
107.997070312 1445.36621094 m 0
 343.4921875 1445.36621094 l 1024
  Named: "483 - small letter h start"
107.997070312 1812.50878906 m 0
 343.4921875 1812.50878906 l 1024
  Named: "547 - small letter height"
107.997070312 -4572.15039062 m 0
 343.4921875 -4572.15039062 l 1024
203.666992188 6315.60449219 m 0
 203.666992188 -5432.61425781 l 1024
208.572265625 6315.60449219 m 0
 208.572265625 -5432.61425781 l 1024
107.997070312 3011.42871094 m 0
 343.4921875 3011.42871094 l 1024
107.997070312 -958.19921875 m 0
 343.4921875 -958.19921875 l 1024
107.997070312 843.043945312 m 0

StartChar: A
Encoding: 65 65 0
Width: 337
VWidth: -112
Flags: HW
LayerCount: 2
Fore
SplineSet
159.053710938 646.130859375 m 1
 114.060546875 284.5 l 1
 205.024414062 284.5 l 1
 159.053710938 646.130859375 l 1
231 -103.580078125 m 1
 231 75.5205078125 l 1
 217.157226562 219.719726562 l 1
 101.91015625 219.719726562 l 1
 87 75.501953125 l 1
 87 -103.580078125 l 1
 87 -109.459960938 l 1
 87 -114.459960938 l 1
 82 -114.459960938 l 1
 76.5 -114.459960938 l 1
 49 -114.459960938 l 1
 43.5 -114.459960938 l 1
 38.5 -114.459960938 l 1
 38.5 -109.459960938 l 1
 38.5 -103.580078125 l 1
 38.5 87.6025390625 l 1
 38.5 87.9130859375 l 1
 38.5390625 88.2216796875 l 1
 143.0390625 909.237304688 l 1
 143.069335938 909.471679688 l 1
 143.12109375 909.702148438 l 1
 144.220703125 914.5546875 l 1
 145.09765625 918.459960938 l 1
 149.099609375 918.459960938 l 1
 153.5 918.459960938 l 1
 164.5 918.459960938 l 1
 170 918.459960938 l 1
 175 918.459960938 l 1
 175 913.459960938 l 1
 175 908.91796875 l 1
 279.4609375 88.2197265625 l 1
 279.5 87.9111328125 l 1
 279.5 87.6005859375 l 1
 279.5 -103.580078125 l 1
 279.5 -109.459960938 l 1
 279.5 -114.459960938 l 1
 274.5 -114.459960938 l 1
 269 -114.459960938 l 1
 241.5 -114.459960938 l 1
 236 -114.459960938 l 1
 231 -114.459960938 l 1
 231 -109.459960938 l 1
 231 -103.580078125 l 1
EndSplineSet
EndChar

StartChar: B
Encoding: 66 66 1
Width: 346
VWidth: -112
Flags: HW
LayerCount: 2
Fore
SplineSet
93.017578125 488.25 m 1
 175.517578125 488.25 l 1
 195.317382812 503.9296875 214.017578125 564.690429688 225.017578125 610.75 c 0
 229.416992188 628.389648438 240.416992188 690.129882812 228.317382812 755.790039062 c 0
 228.317382812 758.73046875 226.1171875 761.669921875 225.017578125 765.58984375 c 0
 215.1171875 797.9296875 186.517578125 829.290039062 181.017578125 827.330078125 c 2
 179.916992188 826.349609375 l 1
 179.916992188 826.349609375 l 1
 93.017578125 826.349609375 l 1
 93.017578125 488.25 l 1
54.517578125 919.450195312 m 1
 60.017578125 919.450195312 l 1
 178.817382812 918.469726562 l 1
 178.817382812 918.469726562 l 1
 178.817382812 918.469726562 l 2
 199.716796875 917.490234375 266.817382812 853.790039062 271.216796875 744.030273438 c 0
 273.416992188 688.169921875 271.216796875 645.049804688 265.716796875 605.849609375 c 0
 255.817382812 539.209960938 232.716796875 475.509765625 227.216796875 460.809570312 c 1
 240.416992188 446.110351562 277.817382812 383.389648438 283.317382812 287.349609375 c 0
 287.716796875 207.969726562 283.317382812 83.509765625 278.916992188 44.3095703125 c 0
 271.216796875 -11.5498046875 253.6171875 -101.709960938 206.317382812 -113.469726562 c 2
 205.216796875 -113.469726562 l 1
 205.216796875 -113.469726562 l 1
 60.017578125 -114.450195312 l 1
 54.517578125 -114.450195312 l 1
 54.517578125 -108.5703125 l 1
 54.517578125 913.5703125 l 1
 54.517578125 919.450195312 l 1
93.017578125 -21.349609375 m 1
 194.216796875 -21.349609375 l 1
 228.317382812 0.2099609375 238.216796875 66.849609375 240.416992188 85.4697265625 c 0
 242.6171875 115.849609375 248.1171875 234.4296875 239.317382812 293.23046875 c 0
 238.216796875 298.129882812 237.1171875 304.009765625 236.017578125 308.91015625 c 0
 222.817382812 363.790039062 189.817382812 394.169921875 183.216796875 393.190429688 c 2
 182.1171875 393.190429688 l 1
 182.1171875 393.190429688 l 1
 93.017578125 393.190429688 l 1
 93.017578125 -21.349609375 l 1
EndSplineSet
EndChar

StartChar: i
Encoding: 105 105 2
Width: 273
VWidth: -104
Flags: HW
LayerCount: 2
Fore
SplineSet
138.5 634.860351562 m 1
 138.5 639.759765625 l 1
 138.5 773.040039062 l 1
 138.5 777.940429688 l 1
 144 777.940429688 l 1
 206.700195312 777.940429688 l 1
 212.200195312 777.940429688 l 1
 212.200195312 773.040039062 l 1
 212.200195312 639.759765625 l 1
 212.200195312 634.860351562 l 1
 206.700195312 634.860351562 l 1
 144 634.860351562 l 1
 138.5 634.860351562 l 1
163.799804688 -109.940429688 m 1
 163.799804688 -105.040039062 l 1
 163.799804688 492.759765625 l 1
 100 492.759765625 l 5
 94.5 492.759765625 l 5
 94.5 497.66015625 l 5
 94.5 564.299804688 l 5
 94.5 570.1796875 l 5
 100 570.1796875 l 5
 210 570.1796875 l 1
 215.5 570.1796875 l 1
 215.5 564.299804688 l 1
 215.5 -105.040039062 l 1
 215.5 -109.940429688 l 1
 210 -109.940429688 l 1
 169.299804688 -109.940429688 l 1
 163.799804688 -109.940429688 l 1
EndSplineSet
EndChar

StartChar: C
Encoding: 67 67 3
Width: 342
VWidth: -112
Flags: HW
LayerCount: 2
Fore
SplineSet
149.200195312 -46.83984375 m 6
 149.200195312 -46.83984375 186.599609375 -46.83984375 191 -46.83984375 c 4
 206.400390625 -46.83984375 240.5 3.1396484375 240.5 86.4404296875 c 2
 240.5 214.8203125 l 1
 240.5 219.719726562 l 1
 246 219.719726562 l 1
 272.400390625 219.719726562 l 1
 277.900390625 219.719726562 l 1
 277.900390625 214.8203125 l 1
 277.900390625 91.33984375 l 2
 277.900390625 -52.7197265625 240.5 -114.459960938 191 -114.459960938 c 2
 149.200195312 -114.459960938 l 2
 74.400390625 -114.459960938 38.099609375 25.6796875 38.099609375 210.900390625 c 2
 38.099609375 593.099609375 l 2
 38.099609375 796.940429688 89.7998046875 918.459960938 149.200195312 918.459960938 c 2
 191 918.459960938 l 2
 240.5 918.459960938 277.900390625 859.66015625 277.900390625 712.66015625 c 2
 277.900390625 593.099609375 l 1
 277.900390625 587.219726562 l 1
 272.400390625 587.219726562 l 1
 246 587.219726562 l 1
 240.5 587.219726562 l 1
 240.5 593.099609375 l 1
 240.5 717.559570312 l 2
 240.5 803.799804688 206.400390625 848.879882812 191 847.900390625 c 2
 191 847.900390625 l 1
 191 847.900390625 l 1
 149.200195312 847.900390625 l 2
 106.299804688 843.98046875 86.5 702.860351562 86.5 592.120117188 c 2
 86.5 210.900390625 l 2
 86.5 97.2197265625 97.5 -42.919921875 149.200195312 -46.83984375 c 6
EndSplineSet
EndChar

StartChar: D
Encoding: 68 68 4
Width: 333
VWidth: -123
Flags: HW
LayerCount: 2
Fore
SplineSet
100 -50 m 5
 144 -50 l 21
 186 -50 240 16 240 165 c 9
 240 656 l 17
 240 808 184 854 144 854 c 9
 100 854 l 1
 100 -50 l 5
294 167 m 17
 294 -24 223 -125 144 -125 c 9
 50 -125 l 1
 45 -125 l 1
 45 -119 l 1
 45 923 l 1
 45 929 l 1
 50 929 l 1
 144 929 l 17
 224 929 294 830 294 657 c 9
 294 167 l 17
EndSplineSet
EndChar

StartChar: E
Encoding: 69 69 5
Width: 338
VWidth: -112
Flags: HW
LayerCount: 2
Fore
SplineSet
54.5 -114.459960938 m 1
 54.5 -108.580078125 l 1
 54.5 912.580078125 l 1
 54.5 918.459960938 l 1
 60 918.459960938 l 1
 280 918.459960938 l 1
 285.5 918.459960938 l 1
 285.5 912.580078125 l 1
 285.5 831.240234375 l 1
 285.5 825.360351562 l 1
 280 825.360351562 l 1
 93 825.360351562 l 1
 93 433.360351562 l 1
 263.5 433.360351562 l 1
 269 433.360351562 l 1
 269 427.48046875 l 1
 269 372.599609375 l 1
 269 367.700195312 l 1
 263.5 367.700195312 l 1
 93 367.700195312 l 1
 93 -21.3603515625 l 1
 280 -21.3603515625 l 1
 285.5 -21.3603515625 l 1
 285.5 -27.240234375 l 1
 285.5 -108.580078125 l 1
 285.5 -114.459960938 l 1
 280 -114.459960938 l 1
 60 -114.459960938 l 1
 54.5 -114.459960938 l 1
EndSplineSet
EndChar

StartChar: F
Encoding: 70 70 6
Width: 335
VWidth: -112
Flags: HW
LayerCount: 2
Fore
SplineSet
44 -114.459960938 m 5
 44 -108.580078125 l 5
 44 912.580078125 l 5
 44 918.459960938 l 5
 49.5 918.459960938 l 5
 280.5 918.459960938 l 1
 286 918.459960938 l 1
 286 912.580078125 l 1
 286 831.240234375 l 1
 286 825.360351562 l 1
 280.5 825.360351562 l 1
 93.5 825.360351562 l 1
 93.5 431.400390625 l 1
 264 431.400390625 l 1
 269.5 431.400390625 l 1
 269.5 425.51953125 l 1
 269.5 372.599609375 l 1
 269.5 367.700195312 l 1
 264 367.700195312 l 1
 93.5 367.700195312 l 1
 93.5 -108.580078125 l 1
 93.5 -114.459960938 l 1
 88 -114.459960938 l 1
 49.5 -114.459960938 l 5
 44 -114.459960938 l 5
EndSplineSet
EndChar

StartChar: G
Encoding: 71 71 7
Width: 345
VWidth: -112
Flags: HW
LayerCount: 2
Fore
SplineSet
277.450195312 617.599609375 m 1
 271.950195312 617.599609375 l 1
 244.450195312 617.599609375 l 1
 238.950195312 617.599609375 l 1
 238.950195312 623.48046875 l 1
 238.950195312 717.559570312 l 17
 238.950195312 767.540039062 226.849609375 824.379882812 190.549804688 824.379882812 c 9
 134.450195312 824.379882812 l 1
 134.450195312 824.379882812 l 1
 133.349609375 824.379882812 l 17
 93.75 828.299804688 84.9501953125 649.940429688 84.9501953125 592.120117188 c 9
 84.9501953125 145.240234375 l 17
 84.9501953125 83.5 106.950195312 -18.419921875 134.450195312 -18.419921875 c 9
 190.549804688 -18.419921875 l 17
 210.349609375 -18.419921875 238.950195312 112.900390625 238.950195312 141.3203125 c 9
 238.950195312 250.099609375 l 1
 170.75 250.099609375 l 1
 165.25 250.099609375 l 1
 165.25 255 l 1
 165.25 337.3203125 l 1
 165.25 343.200195312 l 1
 170.75 343.200195312 l 1
 271.950195312 343.200195312 l 1
 277.450195312 343.200195312 l 1
 277.450195312 337.3203125 l 1
 277.450195312 -108.580078125 l 1
 277.450195312 -114.459960938 l 1
 271.950195312 -114.459960938 l 1
 244.450195312 -114.459960938 l 1
 238.950195312 -114.459960938 l 1
 238.950195312 -108.580078125 l 1
 238.950195312 -53.7001953125 l 1
 230.150390625 -84.080078125 218.049804688 -114.459960938 190.549804688 -114.459960938 c 9
 134.450195312 -114.459960938 l 17
 72.849609375 -114.459960938 37.5498046875 21.759765625 37.5498046875 145.240234375 c 13
 37.5498046875 593.099609375 l 21
 37.5498046875 712.66015625 67.349609375 918.459960938 134.450195312 918.459960938 c 9
 190.549804688 918.459960938 l 17
 233.450195312 918.459960938 277.450195312 853.780273438 277.450195312 717.559570312 c 9
 277.450195312 623.48046875 l 1
 277.450195312 617.599609375 l 1
EndSplineSet
EndChar

StartChar: H
Encoding: 72 72 8
Width: 355
VWidth: -112
Flags: HW
LayerCount: 2
Fore
SplineSet
54.5498046875 -114.459960938 m 1
 54.5498046875 -108.580078125 l 1
 54.5498046875 912.580078125 l 1
 54.5498046875 918.459960938 l 1
 60.0498046875 918.459960938 l 1
 87.5498046875 918.459960938 l 1
 93.0498046875 918.459960938 l 1
 93.0498046875 912.580078125 l 1
 93.0498046875 435.3203125 l 1
 247.049804688 433.360351562 l 1
 247.049804688 912.580078125 l 1
 247.049804688 918.459960938 l 1
 252.549804688 918.459960938 l 1
 278.950195312 918.459960938 l 1
 284.450195312 918.459960938 l 1
 284.450195312 912.580078125 l 1
 284.450195312 -108.580078125 l 1
 284.450195312 -114.459960938 l 1
 278.950195312 -114.459960938 l 1
 252.549804688 -114.459960938 l 1
 247.049804688 -114.459960938 l 1
 247.049804688 -108.580078125 l 1
 247.049804688 374.559570312 l 1
 93.0498046875 374.559570312 l 1
 93.0498046875 -108.580078125 l 1
 93.0498046875 -114.459960938 l 1
 87.5498046875 -114.459960938 l 1
 60.0498046875 -114.459960938 l 1
 54.5498046875 -114.459960938 l 1
EndSplineSet
EndChar

StartChar: I
Encoding: 73 73 9
Width: 262
VWidth: -112
Flags: HW
LayerCount: 2
Fore
SplineSet
36 918.459960938 m 1
 41.5 918.459960938 l 1
 206.5 918.459960938 l 1
 212 918.459960938 l 1
 212 912.580078125 l 1
 212 831.240234375 l 1
 212 825.360351562 l 1
 206.5 825.360351562 l 1
 150.400390625 825.360351562 l 1
 150.400390625 -21.3603515625 l 1
 206.5 -21.3603515625 l 1
 212 -21.3603515625 l 1
 212 -27.240234375 l 1
 212 -108.580078125 l 1
 212 -114.459960938 l 1
 206.5 -114.459960938 l 1
 41.5 -114.459960938 l 1
 36 -114.459960938 l 1
 36 -108.580078125 l 1
 36 -26.259765625 l 1
 36 -20.3798828125 l 1
 41.5 -20.3798828125 l 1
 100.900390625 -21.3603515625 l 5
 100.900390625 825.360351562 l 5
 41.5 825.360351562 l 1
 36 825.360351562 l 1
 36 831.240234375 l 1
 36 912.580078125 l 1
 36 918.459960938 l 1
EndSplineSet
EndChar

StartChar: J
Encoding: 74 74 10
Width: 338
VWidth: -112
Flags: HW
LayerCount: 2
Fore
SplineSet
231.950195312 918.459960938 m 1
 237.450195312 918.459960938 l 1
 264.950195312 918.459960938 l 1
 270.450195312 918.459960938 l 1
 270.450195312 912.580078125 l 1
 270.450195312 274.599609375 l 2
 270.450195312 67.8203125 249.549804688 -114.459960938 183.549804688 -114.459960938 c 2
 127.450195312 -114.459960938 l 2
 59.25 -114.459960938 40.5498046875 44.2998046875 40.5498046875 214.8203125 c 2
 40.5498046875 279.5 l 1
 40.5498046875 284.400390625 l 1
 46.0498046875 284.400390625 l 1
 72.4501953125 284.400390625 l 1
 77.9501953125 284.400390625 l 1
 77.9501953125 279.5 l 1
 77.9501953125 214.8203125 l 2
 77.9501953125 95.259765625 94.4501953125 -18.419921875 130.75 -18.419921875 c 2
 183.549804688 -20.3798828125 l 2
 208.849609375 -20.3798828125 231.950195312 92.3203125 231.950195312 275.580078125 c 2
 231.950195312 912.580078125 l 1
 231.950195312 918.459960938 l 1
EndSplineSet
EndChar

StartChar: K
Encoding: 75 75 11
Width: 325
VWidth: -112
Flags: HW
LayerCount: 2
Fore
SplineSet
54.5 -114.459960938 m 1
 54.5 -108.580078125 l 1
 54.5 912.580078125 l 1
 54.5 918.459960938 l 1
 60 918.459960938 l 1
 86.400390625 918.459960938 l 1
 91.900390625 918.459960938 l 1
 91.900390625 912.580078125 l 1
 91.900390625 435.3203125 l 1
 229.400390625 914.540039062 l 1
 230.5 918.459960938 l 1
 234.900390625 918.459960938 l 1
 271.200195312 918.459960938 l 1
 277.799804688 918.459960938 l 1
 275.599609375 911.599609375 l 1
 138.099609375 436.299804688 l 1
 283.299804688 -107.599609375 l 1
 285.5 -114.459960938 l 1
 278.900390625 -114.459960938 l 1
 244.799804688 -114.459960938 l 1
 240.400390625 -114.459960938 l 1
 239.299804688 -110.540039062 l 1
 112.799804688 359.860351562 l 1
 91.900390625 282.440429688 l 1
 91.900390625 -108.580078125 l 1
 91.900390625 -114.459960938 l 1
 86.400390625 -114.459960938 l 1
 60 -114.459960938 l 1
 54.5 -114.459960938 l 1
EndSplineSet
EndChar

StartChar: L
Encoding: 76 76 12
Width: 335
VWidth: -112
Flags: HW
LayerCount: 2
Fore
SplineSet
54.5 -114.459960938 m 1
 54.5 -108.580078125 l 1
 54.5 912.580078125 l 1
 54.5 918.459960938 l 1
 60 918.459960938 l 1
 107.5 918.459960938 l 5
 113 918.459960938 l 5
 113 912.580078125 l 5
 113 -21.3603515625 l 5
 280 -21.3603515625 l 1
 285.5 -21.3603515625 l 1
 285.5 -27.240234375 l 1
 285.5 -108.580078125 l 1
 285.5 -114.459960938 l 1
 280 -114.459960938 l 1
 60 -114.459960938 l 1
 54.5 -114.459960938 l 1
EndSplineSet
EndChar

StartChar: M
Encoding: 77 77 13
Width: 358
VWidth: -112
InSpiro: 1
Flags: HW
LayerCount: 2
Fore
SplineSet
54.111328125 -113.27734375 m 1
 54.111328125 -107.887695312 l 1
 54.111328125 912.263671875 l 1
 54.111328125 917.59765625 l 1
 59.611328125 917.59765625 l 1
 89.6845703125 917.59765625 l 1
 94.42578125 917.59765625 l 1
 95.1240234375 913.000976562 l 1
 169.478515625 423.333007812 l 1
 243.833007812 913.000976562 l 1
 244.53125 917.59765625 l 1
 249.272460938 917.59765625 l 1
 279.345703125 917.59765625 l 1
 284.845703125 917.59765625 l 1
 284.845703125 912.263671875 l 1
 284.802734375 -107.887695312 l 1
 284.802734375 -113.27734375 l 1
 279.302734375 -113.27734375 l 1
 251.846679688 -113.27734375 l 1
 246.346679688 -113.27734375 l 1
 246.346679688 -107.887695312 l 1
 246.346679688 669.028320312 l 1
 174.91796875 198.069335938 l 1
 169.485351562 162.241210938 l 1
 164.0390625 198.068359375 l 1
 92.6103515625 667.938476562 l 1
 92.6103515625 -107.887695312 l 1
 92.6103515625 -113.27734375 l 1
 87.1103515625 -113.27734375 l 1
 59.611328125 -113.27734375 l 1
 54.111328125 -113.27734375 l 1
EndSplineSet
EndChar

StartChar: N
Encoding: 78 78 14
Width: 355
VWidth: -112
Flags: HW
LayerCount: 2
Fore
SplineSet
34.5498046875 -114.459960938 m 5
 34.5498046875 -108.580078125 l 5
 34.5498046875 912.580078125 l 5
 34.5498046875 918.459960938 l 5
 40.0498046875 918.459960938 l 5
 91.9501953125 918.459960938 l 1
 96.349609375 918.459960938 l 1
 97.4501953125 913.559570312 l 1
 247.049804688 109.959960938 l 1
 247.049804688 912.580078125 l 1
 247.049804688 918.459960938 l 1
 252.549804688 918.459960938 l 1
 288.950195312 918.459960938 l 1
 294.450195312 918.459960938 l 1
 294.450195312 912.580078125 l 1
 294.450195312 -108.580078125 l 1
 294.450195312 -114.459960938 l 1
 288.950195312 -114.459960938 l 1
 252.549804688 -114.459960938 l 1
 247.049804688 -114.459960938 l 1
 247.049804688 -109.559570312 l 1
 93.0498046875 717.559570312 l 1
 93.0498046875 -108.580078125 l 1
 93.0498046875 -114.459960938 l 1
 87.5498046875 -114.459960938 l 1
 40.0498046875 -114.459960938 l 5
 34.5498046875 -114.459960938 l 5
EndSplineSet
EndChar

StartChar: O
Encoding: 79 79 15
Width: 350
VWidth: -112
Flags: HW
LayerCount: 2
Fore
SplineSet
92.0498046875 171.879882812 m 17
 92.0498046875 64.080078125 115.150390625 -40.3798828125 140.450195312 -40.3798828125 c 13
 196.549804688 -40.3798828125 l 21
 221.849609375 -40.3798828125 246.049804688 63.099609375 246.049804688 171.879882812 c 9
 246.049804688 642.120117188 l 17
 246.049804688 742.080078125 228.450195312 844.379882812 196.549804688 844.379882812 c 9
 140.450195312 844.379882812 l 17
 107.450195312 844.379882812 92.0498046875 743.059570312 92.0498046875 642.120117188 c 9
 92.0498046875 171.879882812 l 17
140.450195312 -114.459960938 m 17
 88.75 -114.459960938 39.5498046875 -20.2001953125 39.5498046875 170.900390625 c 9
 39.5498046875 645.059570312 l 17
 39.5498046875 832.240234375 89.849609375 918.459960938 141.549804688 918.459960938 c 9
 196.549804688 918.459960938 l 17
 246.049804688 918.459960938 293.450195312 831.259765625 293.450195312 643.099609375 c 9
 293.450195312 170.900390625 l 17
 293.450195312 -19.2197265625 251.549804688 -114.459960938 196.549804688 -114.459960938 c 9
 140.450195312 -114.459960938 l 17
EndSplineSet
EndChar

StartChar: P
Encoding: 80 80 16
Width: 343
VWidth: -112
Flags: HW
LayerCount: 2
Fore
SplineSet
93.0498046875 824.379882812 m 1
 93.0498046875 422.580078125 l 1
 168.950195312 422.580078125 l 2
 203.049804688 422.580078125 247.049804688 472.559570312 247.049804688 547.040039062 c 2
 247.049804688 686.200195312 l 2
 247.049804688 747.940429688 196.450195312 824.379882812 168.950195312 824.379882812 c 2
 93.0498046875 824.379882812 l 1
54.5498046875 -114.459960938 m 1
 54.5498046875 -108.580078125 l 1
 54.5498046875 912.580078125 l 1
 54.5498046875 918.459960938 l 1
 60.0498046875 918.459960938 l 1
 168.950195312 918.459960938 l 2
 225.049804688 918.459960938 284.450195312 811.639648438 284.450195312 685.219726562 c 2
 284.450195312 547.040039062 l 2
 284.450195312 414.740234375 226.150390625 335.360351562 168.950195312 335.360351562 c 2
 93.0498046875 335.360351562 l 1
 93.0498046875 -108.580078125 l 1
 93.0498046875 -114.459960938 l 1
 87.5498046875 -114.459960938 l 1
 60.0498046875 -114.459960938 l 1
 54.5498046875 -114.459960938 l 1
EndSplineSet
EndChar

StartChar: Q
Encoding: 81 81 17
Width: 345
VWidth: -108
Flags: HW
LayerCount: 2
Fore
SplineSet
135.450195312 -26.58984375 m 1
 136.549804688 -26.58984375 l 2
 138.75 -26.58984375 184.950195312 -32.4697265625 192.650390625 -18.75 c 1
 146.450195312 138.049804688 l 1
 145.349609375 140.009765625 l 1
 147.549804688 141.969726562 l 1
 171.75 180.190429688 l 1
 178.349609375 189.990234375 l 1
 181.650390625 178.23046875 l 1
 219.049804688 44.9501953125 l 1
 226.75 67.490234375 239.950195312 115.509765625 239.950195312 206.650390625 c 2
 239.950195312 594.73046875 l 2
 239.950195312 696.650390625 222.349609375 829.9296875 190.450195312 829.9296875 c 2
 135.450195312 829.9296875 l 2
 102.450195312 829.9296875 85.9501953125 696.650390625 85.9501953125 593.75 c 2
 85.9501953125 206.650390625 l 2
 85.9501953125 97.8701171875 110.150390625 -26.58984375 135.450195312 -26.58984375 c 2
 135.450195312 -26.58984375 l 1
220.150390625 -80.490234375 m 2
 208.049804688 -81.4697265625 l 1
 206.950195312 -76.5703125 l 1
 214.650390625 -76.5703125 l 2
 215.75 -76.5703125 220.150390625 -79.509765625 220.150390625 -80.490234375 c 2
228.950195312 -147.129882812 m 1
 212.450195312 -94.2099609375 l 1
 206.950195312 -100.08984375 198.150390625 -108.91015625 187.150390625 -108.91015625 c 2
 135.450195312 -108.91015625 l 2
 83.75 -108.91015625 47.4501953125 23.3896484375 47.4501953125 214.490234375 c 2
 47.4501953125 599.629882812 l 2
 47.4501953125 786.809570312 83.75 922.049804688 135.450195312 922.049804688 c 2
 190.450195312 922.049804688 l 2
 239.950195312 922.049804688 278.450195312 786.809570312 278.450195312 598.650390625 c 2
 278.450195312 215.469726562 l 2
 278.450195312 75.330078125 246.549804688 -11.8896484375 242.150390625 -24.6298828125 c 1
 278.450195312 -144.190429688 l 1
 279.549804688 -151.049804688 l 1
 272.950195312 -151.049804688 l 1
 234.450195312 -151.049804688 l 1
 230.049804688 -151.049804688 l 1
 228.950195312 -147.129882812 l 1
EndSplineSet
EndChar

StartChar: R
Encoding: 82 82 18
Width: 343
VWidth: -112
Flags: HW
LayerCount: 2
Fore
SplineSet
93.9501953125 824.379882812 m 1
 93.9501953125 419.639648438 l 1
 170.950195312 419.639648438 l 17
 205.049804688 419.639648438 237.950195312 468.639648438 237.950195312 543.120117188 c 9
 237.950195312 686.200195312 l 17
 237.950195312 747.940429688 198.450195312 824.379882812 170.950195312 824.379882812 c 9
 93.9501953125 824.379882812 l 1
37.4501953125 -114.459960938 m 1
 37.4501953125 -108.580078125 l 1
 37.4501953125 912.580078125 l 1
 37.4501953125 918.459960938 l 1
 42.9501953125 918.459960938 l 1
 170.950195312 918.459960938 l 17
 227.049804688 918.459960938 294.450195312 811.639648438 294.450195312 686.200195312 c 13
 294.450195312 543.120117188 l 21
 294.450195312 409.83984375 216.049804688 352.01953125 201.75 341.240234375 c 1
 286.450195312 -107.599609375 l 1
 287.549804688 -114.459960938 l 1
 280.950195312 -114.459960938 l 1
 249.049804688 -114.459960938 l 1
 243.549804688 -114.459960938 l 1
 243.549804688 -109.559570312 l 1
 159.950195312 338.299804688 l 1
 93.9501953125 338.299804688 l 1
 93.9501953125 -108.580078125 l 1
 93.9501953125 -114.459960938 l 1
 88.4501953125 -114.459960938 l 1
 42.9501953125 -114.459960938 l 1
 37.4501953125 -114.459960938 l 1
EndSplineSet
EndChar

StartChar: S
Encoding: 83 83 19
Width: 338
VWidth: -112
Flags: HW
LayerCount: 2
Fore
SplineSet
43.5 239.3203125 m 1
 49 239.3203125 l 1
 76.5 239.3203125 l 1
 82 239.3203125 l 1
 82 233.440429688 l 1
 82 147.200195312 l 2
 82 53.1201171875 123.799804688 -20.3798828125 145.799804688 -20.3798828125 c 2
 173.299804688 -20.3798828125 l 2
 220.599609375 -19.400390625 236 77.6201171875 236 145.240234375 c 0
 236 348.099609375 132.599609375 330.459960938 76.5 453.940429688 c 0
 54.5 503.919921875 43.5 563.700195312 43.5 630.33984375 c 2
 43.5 690.120117188 l 2
 43.5 819.48046875 84.2001953125 918.459960938 145.799804688 918.459960938 c 2
 173.299804688 918.459960938 l 2
 230.5 918.459960938 274.5 788.120117188 274.5 653.860351562 c 2
 274.5 559.780273438 l 1
 274.5 553.900390625 l 1
 269 553.900390625 l 1
 241.5 553.900390625 l 1
 236 553.900390625 l 1
 236 559.780273438 l 1
 236 653.860351562 l 2
 236 756.759765625 196.400390625 823.400390625 173.299804688 824.379882812 c 2
 145.799804688 824.379882812 l 2
 98.5 824.379882812 82 735.200195312 82 655.8203125 c 0
 82 452.959960938 187.599609375 472.559570312 240.400390625 354.959960938 c 0
 261.299804688 305.959960938 274.5 246.1796875 274.5 178.559570312 c 2
 274.5 111.919921875 l 2
 274.5 -18.419921875 234.900390625 -114.459960938 173.299804688 -114.459960938 c 2
 145.799804688 -114.459960938 l 2
 89.7001953125 -114.459960938 43.5 11.9599609375 43.5 147.200195312 c 2
 43.5 233.440429688 l 1
 43.5 239.3203125 l 1
EndSplineSet
EndChar

StartChar: T
Encoding: 84 84 20
Width: 300
VWidth: -112
Flags: HW
LayerCount: 2
Fore
SplineSet
122.599609375 -114.459960938 m 1
 122.599609375 -108.580078125 l 1
 122.599609375 837.120117188 l 1
 11 837.120117188 l 1
 5.5 837.120117188 l 1
 5.5 843 l 1
 5.5 912.580078125 l 1
 5.5 918.459960938 l 1
 11 918.459960938 l 1
 273 918.459960938 l 1
 278.5 918.459960938 l 1
 278.5 912.580078125 l 1
 278.5 843 l 1
 278.5 837.120117188 l 1
 273 837.120117188 l 1
 166.799804688 837.120117188 l 5
 166.799804688 -108.580078125 l 5
 166.799804688 -114.459960938 l 5
 161.299804688 -114.459960938 l 5
 128.099609375 -114.459960938 l 1
 122.599609375 -114.459960938 l 1
EndSplineSet
EndChar

StartChar: U
Encoding: 85 85 21
Width: 349
VWidth: -112
Flags: HW
LayerCount: 2
Fore
SplineSet
241 918.459960938 m 1
 247.599609375 918.459960938 l 1
 274 918.459960938 l 1
 278.400390625 918.459960938 l 1
 278.400390625 912.580078125 l 1
 278.400390625 145.240234375 l 2
 278.400390625 19.7998046875 226.700195312 -114.459960938 177.200195312 -114.459960938 c 2
 150.799804688 -114.459960938 l 2
 102.400390625 -114.459960938 49.599609375 19.7998046875 49.599609375 145.240234375 c 2
 49.599609375 912.580078125 l 1
 49.599609375 918.459960938 l 1
 54 918.459960938 l 1
 82.599609375 918.459960938 l 1
 87 918.459960938 l 1
 87 912.580078125 l 1
 87 145.240234375 l 2
 87 69.7802734375 123.299804688 -21.3603515625 150.799804688 -21.3603515625 c 2
 177.200195312 -21.3603515625 l 2
 205.799804688 -21.3603515625 241 69.7802734375 241 145.240234375 c 2
 241 912.580078125 l 1
 241 918.459960938 l 1
EndSplineSet
EndChar

StartChar: V
Encoding: 86 86 22
Width: 315
VWidth: -112
Flags: HW
LayerCount: 2
Fore
SplineSet
155.599609375 142.299804688 m 1
 224.900390625 785.1796875 l 1
 226 912.580078125 l 1
 226 918.459960938 l 1
 231.5 918.459960938 l 1
 259 918.459960938 l 1
 264.5 918.459960938 l 1
 264.5 912.580078125 l 1
 264.5 786.16015625 l 1
 264.5 786.16015625 l 1
 264.5 785.1796875 l 1
 166.599609375 -109.559570312 l 1
 166.599609375 -114.459960938 l 1
 161.099609375 -114.459960938 l 1
 136.900390625 -114.459960938 l 1
 132.5 -114.459960938 l 1
 131.400390625 -109.559570312 l 1
 33.5 785.1796875 l 1
 33.5 786.16015625 l 1
 33.5 786.16015625 l 1
 33.5 912.580078125 l 1
 33.5 918.459960938 l 1
 39 918.459960938 l 1
 66.5 918.459960938 l 1
 72 918.459960938 l 1
 72 912.580078125 l 1
 73.099609375 785.1796875 l 1
 143.5 142.299804688 l 1
 155.599609375 142.299804688 l 1
EndSplineSet
EndChar

StartChar: W
Encoding: 87 87 23
Width: 343
VWidth: -112
Flags: HW
LayerCount: 2
Fore
SplineSet
220.200195312 98.2001953125 m 1
 240 357.900390625 l 1
 238.900390625 912.580078125 l 1
 238.900390625 918.459960938 l 1
 244.400390625 918.459960938 l 1
 273 918.459960938 l 1
 278.5 918.459960938 l 1
 278.5 912.580078125 l 1
 278.5 363.780273438 l 1
 278.5 363.780273438 l 1
 278.5 362.799804688 l 1
 243.299804688 -109.559570312 l 1
 242.200195312 -114.459960938 l 1
 237.799804688 -114.459960938 l 1
 208.099609375 -114.459960938 l 1
 202.599609375 -114.459960938 l 1
 202.599609375 -109.559570312 l 1
 163 263.8203125 l 1
 123.400390625 -109.559570312 l 1
 122.299804688 -114.459960938 l 1
 117.900390625 -114.459960938 l 1
 89.2998046875 -114.459960938 l 1
 83.7998046875 -114.459960938 l 1
 83.7998046875 -109.559570312 l 1
 47.5 362.799804688 l 1
 47.5 363.780273438 l 1
 47.5 363.780273438 l 1
 47.5 912.580078125 l 1
 47.5 918.459960938 l 1
 53 918.459960938 l 1
 80.5 918.459960938 l 1
 86 918.459960938 l 1
 86 912.580078125 l 1
 86 357.900390625 l 1
 105.799804688 101.139648438 l 1
 143.200195312 439.240234375 l 1
 143.200195312 589.1796875 l 1
 143.200195312 595.059570312 l 1
 148.700195312 595.059570312 l 1
 177.299804688 595.059570312 l 1
 182.799804688 595.059570312 l 1
 182.799804688 589.1796875 l 1
 182.799804688 439.240234375 l 1
 220.200195312 98.2001953125 l 1
EndSplineSet
EndChar

StartChar: X
Encoding: 88 88 24
Width: 320
VWidth: -112
Flags: HW
LayerCount: 2
Fore
SplineSet
231.049804688 -114.459960938 m 1
 231.049804688 -108.580078125 l 1
 231.049804688 20.7802734375 l 1
 152.950195312 381.419921875 l 1
 77.0498046875 20.7802734375 l 1
 77.0498046875 -108.580078125 l 1
 77.0498046875 -114.459960938 l 1
 71.5498046875 -114.459960938 l 1
 44.0498046875 -114.459960938 l 1
 38.5498046875 -114.459960938 l 1
 38.5498046875 -108.580078125 l 1
 38.5498046875 42.33984375 l 1
 38.5498046875 43.3203125 l 1
 38.5498046875 43.3203125 l 1
 132.049804688 476.48046875 l 1
 38.5498046875 911.599609375 l 1
 37.4501953125 918.459960938 l 1
 44.0498046875 918.459960938 l 1
 75.9501953125 918.459960938 l 1
 80.349609375 918.459960938 l 1
 81.4501953125 914.540039062 l 1
 152.950195312 575.459960938 l 1
 225.549804688 914.540039062 l 1
 226.650390625 918.459960938 l 1
 231.049804688 918.459960938 l 1
 262.950195312 918.459960938 l 1
 269.549804688 918.459960938 l 1
 268.450195312 911.599609375 l 1
 176.049804688 476.48046875 l 1
 268.450195312 43.3203125 l 1
 268.450195312 43.3203125 l 1
 268.450195312 42.33984375 l 1
 268.450195312 -108.580078125 l 1
 268.450195312 -114.459960938 l 1
 262.950195312 -114.459960938 l 1
 236.549804688 -114.459960938 l 1
 231.049804688 -114.459960938 l 1
EndSplineSet
EndChar

StartChar: Y
Encoding: 89 89 25
Width: 313
VWidth: -112
Flags: HW
LayerCount: 2
Fore
SplineSet
167.900390625 -114.459960938 m 1
 161.299804688 -114.459960938 l 1
 132.700195312 -114.459960938 l 1
 128.299804688 -114.459960938 l 1
 128.299804688 -108.580078125 l 1
 128.299804688 338.299804688 l 1
 32.599609375 785.1796875 l 1
 31.5 785.1796875 l 1
 31.5 786.16015625 l 1
 31.5 912.580078125 l 1
 31.5 918.459960938 l 1
 38.099609375 918.459960938 l 1
 64.5 918.459960938 l 1
 71.099609375 918.459960938 l 1
 71.099609375 912.580078125 l 1
 71.099609375 804.780273438 l 1
 147 445.120117188 l 1
 225.099609375 808.700195312 l 1
 225.099609375 912.580078125 l 1
 225.099609375 918.459960938 l 1
 229.5 918.459960938 l 1
 258.099609375 918.459960938 l 1
 262.5 918.459960938 l 1
 262.5 912.580078125 l 1
 262.5 786.16015625 l 1
 262.5 785.1796875 l 1
 262.5 785.1796875 l 1
 167.900390625 338.299804688 l 1
 167.900390625 -108.580078125 l 1
 167.900390625 -114.459960938 l 1
EndSplineSet
EndChar

StartChar: Z
Encoding: 90 90 26
Width: 320
VWidth: -112
Flags: HW
LayerCount: 2
Fore
SplineSet
267.450195312 -114.459960938 m 1
 261.950195312 -114.459960938 l 1
 43.0498046875 -114.459960938 l 1
 37.5498046875 -114.459960938 l 1
 37.5498046875 -108.580078125 l 1
 37.5498046875 -27.240234375 l 1
 37.5498046875 -26.259765625 l 1
 37.5498046875 -26.259765625 l 1
 222.349609375 825.360351562 l 1
 43.0498046875 825.360351562 l 1
 37.5498046875 825.360351562 l 1
 37.5498046875 831.240234375 l 1
 37.5498046875 912.580078125 l 1
 37.5498046875 918.459960938 l 1
 43.0498046875 918.459960938 l 1
 261.950195312 918.459960938 l 1
 267.450195312 918.459960938 l 1
 267.450195312 912.580078125 l 1
 267.450195312 832.219726562 l 1
 267.450195312 831.240234375 l 1
 266.349609375 831.240234375 l 1
 81.5498046875 -21.3603515625 l 1
 261.950195312 -21.3603515625 l 1
 267.450195312 -21.3603515625 l 1
 267.450195312 -27.240234375 l 1
 267.450195312 -108.580078125 l 1
 267.450195312 -114.459960938 l 1
EndSplineSet
EndChar

StartChar: a
Encoding: 97 97 27
Width: 341
VWidth: -79
Flags: HW
LayerCount: 2
Fore
SplineSet
141.549804688 305.309570312 m 1
 118.450195312 294.530273438 77.75 237.690429688 77.75 183.790039062 c 2
 77.75 121.0703125 l 2
 77.75 64.23046875 115.150390625 -16.1298828125 128.349609375 -16.1298828125 c 2
 162.450195312 -16.1298828125 l 2
 191.049804688 -16.1298828125 230.650390625 36.7900390625 230.650390625 145.5703125 c 2
 230.650390625 313.150390625 l 1
 141.549804688 305.309570312 l 1
230.650390625 418.990234375 m 2
 229.549804688 473.870117188 198.75 540.509765625 167.950195312 540.509765625 c 2
 127.25 540.509765625 l 2
 105.25 540.509765625 101.950195312 472.889648438 77.75 472.889648438 c 0
 48.0498046875 472.889648438 45.849609375 495.4296875 49.150390625 516.990234375 c 0
 57.9501953125 570.889648438 92.0498046875 610.08984375 127.25 610.08984375 c 2
 167.950195312 610.08984375 l 2
 213.049804688 610.08984375 279.049804688 549.330078125 279.049804688 400.370117188 c 2
 279.049804688 103.4296875 l 2
 279.049804688 89.7099609375 277.950195312 69.1298828125 279.049804688 51.490234375 c 0
 280.150390625 27.9697265625 286.75 17.1904296875 291.150390625 17.1904296875 c 2
 294.450195312 18.169921875 l 1
 296.650390625 14.25 l 2
 297.75 11.3095703125 297.75 7.3896484375 297.75 3.4697265625 c 0
 279.049804688 -66.1103515625 l 1
 248.25 -61.2099609375 l 1
 244.950195312 -60.23046875 l 1
 243.849609375 -57.2900390625 l 1
 233.950195312 -6.330078125 l 1
 221.849609375 -26.91015625 197.650390625 -67.08984375 154.75 -67.08984375 c 2
 127.25 -67.08984375 l 2
 93.150390625 -67.08984375 39.25 7.3896484375 39.25 118.129882812 c 2
 39.25 178.889648438 l 2
 39.25 269.049804688 87.650390625 343.530273438 138.25 368.030273438 c 2
 139.349609375 369.009765625 l 1
 139.349609375 369.009765625 l 1
 230.650390625 378.809570312 l 1
 230.650390625 418.990234375 l 2
EndSplineSet
EndChar

StartChar: b
Encoding: 98 98 28
Width: 349
VWidth: -111
Flags: HW
LayerCount: 2
Fore
SplineSet
155.75 497.080078125 m 2
 118.349609375 497.080078125 93.0498046875 432.400390625 93.0498046875 367.719726562 c 2
 93.0498046875 84.5 l 2
 93.0498046875 28.6396484375 126.049804688 -30.16015625 155.75 -30.16015625 c 2
 183.25 -30.16015625 l 2
 217.349609375 -30.16015625 247.049804688 45.2998046875 247.049804688 79.599609375 c 2
 247.049804688 367.719726562 l 2
 247.049804688 425.540039062 217.349609375 497.080078125 183.25 497.080078125 c 2
 155.75 497.080078125 l 2
93.0498046875 -122.280273438 m 1
 87.5498046875 -122.280273438 l 1
 60.0498046875 -122.280273438 l 1
 54.5498046875 -122.280273438 l 1
 54.5498046875 -116.400390625 l 1
 54.5498046875 922.400390625 l 1
 54.5498046875 928.280273438 l 1
 60.0498046875 928.280273438 l 1
 87.5498046875 928.280273438 l 1
 93.0498046875 928.280273438 l 1
 93.0498046875 922.400390625 l 1
 93.0498046875 550.98046875 l 2
 93.0498046875 550 93.0498046875 549.01953125 93.0498046875 549.01953125 c 1
 104.049804688 551.959960938 132.650390625 581.360351562 155.75 581.360351562 c 2
 183.25 581.360351562 l 2
 231.650390625 581.360351562 284.450195312 477.48046875 284.450195312 364.780273438 c 2
 284.450195312 77.6396484375 l 2
 284.450195312 -20.3603515625 243.75 -122.280273438 183.25 -122.280273438 c 2
 155.75 -122.280273438 l 2
 131.549804688 -122.280273438 108.450195312 -94.83984375 93.0498046875 -73.2802734375 c 1
 93.0498046875 -116.400390625 l 1
 93.0498046875 -122.280273438 l 1
EndSplineSet
EndChar

StartChar: c
Encoding: 99 99 29
Width: 340
VWidth: -75
Flags: HW
LayerCount: 2
Fore
SplineSet
82.9501953125 123.0703125 m 2
 82.9501953125 33.8896484375 107.150390625 2.5302734375 132.450195312 1.5498046875 c 2
 200.650390625 1.5498046875 l 2
 209.450195312 1.5498046875 236.950195312 35.849609375 236.950195312 116.209960938 c 2
 236.950195312 180.889648438 l 1
 236.950195312 186.76953125 l 1
 242.450195312 186.76953125 l 1
 269.950195312 186.76953125 l 1
 275.450195312 186.76953125 l 1
 275.450195312 180.889648438 l 1
 275.450195312 120.129882812 l 2
 275.450195312 -13.150390625 245.75 -77.830078125 200.650390625 -77.830078125 c 2
 132.450195312 -77.830078125 l 2
 76.349609375 -77.830078125 45.5498046875 -4.330078125 45.5498046875 122.08984375 c 2
 45.5498046875 426.870117188 l 2
 45.5498046875 553.290039062 77.4501953125 624.830078125 134.650390625 624.830078125 c 2
 197.349609375 624.830078125 l 2
 241.349609375 624.830078125 275.450195312 542.509765625 275.450195312 421.969726562 c 2
 275.450195312 356.309570312 l 1
 275.450195312 350.4296875 l 1
 269.950195312 350.4296875 l 1
 242.450195312 350.4296875 l 1
 236.950195312 350.4296875 l 1
 236.950195312 356.309570312 l 1
 236.950195312 421.969726562 l 2
 236.950195312 497.4296875 205.049804688 546.4296875 197.349609375 546.4296875 c 2
 134.650390625 546.4296875 l 2
 109.349609375 546.4296875 82.9501953125 500.370117188 82.9501953125 424.91015625 c 2
 82.9501953125 123.0703125 l 2
EndSplineSet
EndChar

StartChar: d
Encoding: 100 100 30
Width: 346
VWidth: -110
Flags: HW
LayerCount: 2
Fore
SplineSet
161.25 514.860351562 m 6
 211.849609375 514.860351562 234.950195312 437.440429688 234.950195312 374.719726562 c 6
 234.950195312 92.48046875 l 6
 234.950195312 36.6201171875 204.150390625 -33.9404296875 161.25 -33.9404296875 c 6
 133.75 -33.9404296875 l 6
 86.4501953125 -33.9404296875 80.9501953125 52.2998046875 80.9501953125 86.599609375 c 6
 80.9501953125 374.719726562 l 6
 80.9501953125 431.559570312 86.4501953125 514.860351562 133.75 514.860351562 c 6
 161.25 514.860351562 l 6
234.950195312 -48.6396484375 m 5
 234.950195312 -104.5 l 5
 284.450195312 -104.5 l 5
 284.450195312 924.5 l 5
 234.950195312 924.5 l 5
 234.950195312 557.98046875 l 6
 234.950195312 524.66015625 174.450195312 577.580078125 161.25 577.580078125 c 6
 133.75 577.580078125 l 6
 98.5498046875 577.580078125 32.5498046875 485.459960938 32.5498046875 371.780273438 c 6
 32.5498046875 84.6396484375 l 6
 32.5498046875 -14.33984375 86.4501953125 -104.5 133.75 -104.5 c 6
 161.25 -104.5 l 6
 182.150390625 -104.5 209.650390625 -70.2001953125 225.049804688 -45.7001953125 c 6
 234.950195312 -30.01953125 l 5
 234.950195312 -48.6396484375 l 5
EndSplineSet
EndChar

StartChar: e
Encoding: 101 101 31
Width: 343
VWidth: -74
Flags: HW
LayerCount: 2
Fore
SplineSet
86 127.030273438 m 2
 86 35.8896484375 123.400390625 -12.1298828125 146.5 -13.1103515625 c 2
 190.5 -13.1103515625 l 2
 203.700195312 -13.1103515625 240 -2.330078125 240 75.08984375 c 2
 240 143.690429688 l 1
 240 148.58984375 l 1
 245.5 148.58984375 l 1
 273 148.58984375 l 1
 278.5 148.58984375 l 1
 278.5 143.690429688 l 1
 278.5 79.009765625 l 2
 278.5 -57.2099609375 232.299804688 -71.91015625 190.5 -71.91015625 c 2
 146.5 -71.91015625 l 2
 88.2001953125 -71.91015625 47.5 3.5498046875 47.5 127.030273438 c 2
 47.5 436.709960938 l 2
 47.5 566.0703125 79.400390625 622.91015625 135.5 622.91015625 c 2
 190.5 622.91015625 l 2
 234.5 622.91015625 278.5 543.530273438 278.5 422.009765625 c 2
 278.5 268.150390625 l 1
 278.5 263.25 l 1
 273 263.25 l 1
 86 265.209960938 l 1
 86 127.030273438 l 2
86 428.870117188 m 2
 86 327.9296875 l 1
 240 327.9296875 l 1
 240 416.129882812 l 2
 240 513.150390625 199.299804688 562.150390625 190.5 562.150390625 c 6
 135.5 562.150390625 l 6
 110.200195312 562.150390625 86 506.290039062 86 428.870117188 c 2
EndSplineSet
EndChar

StartChar: f
Encoding: 102 102 32
Width: 313
VWidth: -115
Flags: HW
LayerCount: 2
Fore
SplineSet
126.200195312 -115.280273438 m 1
 126.200195312 -109.400390625 l 1
 126.200195312 495.259765625 l 1
 36 495.259765625 l 1
 30.5 495.259765625 l 1
 30.5 501.139648438 l 1
 30.5 580.51953125 l 1
 30.5 585.419921875 l 1
 36 585.419921875 l 1
 126.200195312 585.419921875 l 1
 126.200195312 667.740234375 l 2
 126.200195312 779.459960938 154.799804688 935.280273438 201 935.280273438 c 2
 256 935.280273438 l 1
 261.5 935.280273438 l 1
 261.5 929.400390625 l 1
 261.5 849.040039062 l 1
 261.5 843.16015625 l 1
 256 843.16015625 l 1
 201 843.16015625 l 2
 186.700195312 842.1796875 165.799804688 745.16015625 165.799804688 667.740234375 c 2
 165.799804688 585.419921875 l 1
 256 585.419921875 l 1
 261.5 585.419921875 l 1
 261.5 580.51953125 l 1
 261.5 501.139648438 l 1
 261.5 495.259765625 l 1
 256 495.259765625 l 1
 165.799804688 495.259765625 l 1
 165.799804688 -109.400390625 l 1
 165.799804688 -115.280273438 l 1
 160.299804688 -115.280273438 l 1
 131.700195312 -115.280273438 l 1
 126.200195312 -115.280273438 l 1
EndSplineSet
EndChar

StartChar: g
Encoding: 103 103 33
Width: 350
VWidth: -48
Flags: HW
LayerCount: 2
Fore
SplineSet
176.25 43.6103515625 m 2
 214.75 43.6103515625 238.950195312 107.309570312 238.950195312 170.030273438 c 2
 238.950195312 447.370117188 l 2
 238.950195312 502.25 205.950195312 560.0703125 176.25 560.0703125 c 2
 148.75 560.0703125 l 2
 114.650390625 560.0703125 84.9501953125 485.58984375 84.9501953125 452.26953125 c 2
 84.9501953125 170.030273438 l 2
 84.9501953125 113.190429688 114.650390625 43.6103515625 148.75 43.6103515625 c 2
 176.25 43.6103515625 l 2
238.950195312 654.150390625 m 1
 244.450195312 654.150390625 l 1
 271.950195312 654.150390625 l 1
 277.450195312 654.150390625 l 1
 277.450195312 648.26953125 l 1
 277.450195312 -84.76953125 l 2
 277.450195312 -271.950195312 238.950195312 -311.150390625 176.25 -311.150390625 c 2
 148.75 -311.150390625 l 2
 84.9501953125 -311.150390625 47.5498046875 -260.190429688 47.5498046875 -86.73046875 c 2
 47.5498046875 -31.849609375 l 1
 47.5498046875 -26.9501953125 l 1
 53.0498046875 -25.9697265625 l 1
 79.4501953125 -24.990234375 l 1
 84.9501953125 -24.990234375 l 1
 84.9501953125 -30.8701171875 l 1
 84.9501953125 -84.76953125 l 2
 84.9501953125 -208.25 109.150390625 -217.0703125 148.75 -217.0703125 c 2
 176.25 -217.0703125 l 2
 216.950195312 -217.0703125 238.950195312 -217.0703125 238.950195312 -84.76953125 c 2
 238.950195312 -15.1904296875 l 2
 238.950195312 -14.2099609375 238.950195312 -14.2099609375 238.950195312 -14.2099609375 c 1
 229.049804688 -18.1298828125 199.349609375 -47.5302734375 176.25 -47.5302734375 c 2
 148.75 -47.5302734375 l 2
 100.349609375 -47.5302734375 47.5498046875 58.3095703125 47.5498046875 170.030273438 c 2
 47.5498046875 453.25 l 2
 47.5498046875 550.26953125 88.25 654.150390625 148.75 654.150390625 c 2
 176.25 654.150390625 l 2
 201.549804688 654.150390625 223.549804688 624.75 238.950195312 603.190429688 c 1
 238.950195312 648.26953125 l 1
 238.950195312 654.150390625 l 1
EndSplineSet
EndChar

StartChar: h
Encoding: 104 104 34
Width: 351
VWidth: -111
Flags: HW
LayerCount: 2
Fore
SplineSet
42.4501953125 -113.379882812 m 1
 42.4501953125 -107.5 l 1
 42.4501953125 921.5 l 1
 42.4501953125 927.379882812 l 1
 47.9501953125 927.379882812 l 1
 87.5498046875 927.379882812 l 1
 93.0498046875 927.379882812 l 1
 93.0498046875 921.5 l 1
 93.0498046875 492.259765625 l 1
 107.349609375 538.3203125 131.549804688 580.459960938 156.849609375 580.459960938 c 9
 184.349609375 580.459960938 l 17
 233.849609375 580.459960938 296.549804688 580.459960938 296.549804688 332.51953125 c 13
 296.549804688 -107.5 l 1
 296.549804688 -113.379882812 l 1
 291.049804688 -113.379882812 l 1
 252.549804688 -113.379882812 l 1
 247.049804688 -113.379882812 l 1
 247.049804688 -107.5 l 1
 247.049804688 337.419921875 l 21
 247.049804688 518.719726562 218.450195312 505.98046875 184.349609375 505.98046875 c 9
 156.849609375 505.98046875 l 17
 135.950195312 505.98046875 93.0498046875 343.299804688 93.0498046875 253.139648438 c 9
 93.0498046875 -107.5 l 1
 93.0498046875 -113.379882812 l 1
 87.5498046875 -113.379882812 l 1
 47.9501953125 -113.379882812 l 1
 42.4501953125 -113.379882812 l 1
EndSplineSet
EndChar

StartChar: j
Encoding: 106 106 35
Width: 217
VWidth: -78
Flags: HW
LayerCount: 2
Fore
SplineSet
93.4501953125 714.690429688 m 1
 93.4501953125 719.58984375 l 1
 93.4501953125 852.870117188 l 1
 93.4501953125 857.76953125 l 1
 98.9501953125 857.76953125 l 1
 139.650390625 855.809570312 l 1
 145.150390625 855.809570312 l 1
 145.150390625 849.9296875 l 1
 145.150390625 719.58984375 l 1
 145.150390625 714.690429688 l 1
 139.650390625 714.690429688 l 1
 98.9501953125 714.690429688 l 1
 93.4501953125 714.690429688 l 1
102.25 -5.6103515625 m 1
 102.25 538.290039062 l 1
 56.0498046875 538.290039062 l 5
 50.5498046875 538.290039062 l 5
 50.5498046875 544.169921875 l 5
 50.5498046875 618.650390625 l 5
 50.5498046875 623.549804688 l 5
 56.0498046875 623.549804688 l 5
 139.650390625 623.549804688 l 1
 145.150390625 623.549804688 l 1
 145.150390625 618.650390625 l 1
 145.150390625 -3.650390625 l 2
 140.75 -202.58984375 103.349609375 -222.190429688 63.75 -233.950195312 c 2
 63.75 -233.950195312 l 1
 63.75 -233.950195312 l 1
 16.4501953125 -241.790039062 l 1
 9.849609375 -242.76953125 l 1
 9.849609375 -235.91015625 l 1
 9.849609375 -216.309570312 l 1
 9.849609375 -211.41015625 l 1
 14.25 -210.4296875 l 1
 67.0498046875 -189.849609375 l 2
 97.849609375 -178.08984375 104.450195312 -51.669921875 102.25 -5.6103515625 c 1
EndSplineSet
EndChar

StartChar: k
Encoding: 107 107 36
Width: 325
VWidth: -115
Flags: HW
LayerCount: 2
Fore
SplineSet
54.4501953125 -115.280273438 m 1
 54.4501953125 -109.400390625 l 1
 54.4501953125 929.400390625 l 1
 54.4501953125 935.280273438 l 1
 59.9501953125 935.280273438 l 1
 86.349609375 935.280273438 l 1
 91.849609375 935.280273438 l 1
 91.849609375 929.400390625 l 1
 91.849609375 269.860351562 l 1
 218.349609375 606.98046875 l 1
 219.450195312 610.900390625 l 1
 223.849609375 610.900390625 l 1
 265.650390625 610.900390625 l 1
 273.349609375 610.900390625 l 1
 270.049804688 603.059570312 l 1
 143.549804688 266.919921875 l 1
 283.25 -107.440429688 l 1
 286.549804688 -115.280273438 l 1
 278.849609375 -115.280273438 l 1
 238.150390625 -115.280273438 l 1
 233.75 -115.280273438 l 1
 232.650390625 -111.360351562 l 1
 117.150390625 199.299804688 l 1
 91.849609375 131.6796875 l 1
 91.849609375 -109.400390625 l 1
 91.849609375 -115.280273438 l 1
 86.349609375 -115.280273438 l 1
 59.9501953125 -115.280273438 l 1
 54.4501953125 -115.280273438 l 1
EndSplineSet
EndChar

StartChar: l
Encoding: 108 108 37
Width: 203
VWidth: -103
Flags: HW
LayerCount: 2
Fore
SplineSet
97.4501953125 -137.280273438 m 1
 97.4501953125 -131.400390625 l 1
 97.4501953125 833.900390625 l 1
 38.0498046875 833.900390625 l 1
 32.5498046875 833.900390625 l 1
 32.5498046875 839.780273438 l 1
 32.5498046875 907.400390625 l 1
 32.5498046875 913.280273438 l 1
 38.0498046875 913.280273438 l 1
 124.950195312 913.280273438 l 1
 130.450195312 913.280273438 l 1
 130.450195312 907.400390625 l 1
 130.450195312 -131.400390625 l 1
 130.450195312 -137.280273438 l 1
 124.950195312 -137.280273438 l 1
 102.950195312 -137.280273438 l 1
 97.4501953125 -137.280273438 l 1
EndSplineSet
EndChar

StartChar: m
Encoding: 109 109 38
Width: 350
VWidth: -75
Flags: HW
LayerCount: 2
Fore
SplineSet
50.5 -77.830078125 m 1
 50.5 -71.9501953125 l 1
 50.5 618.950195312 l 1
 50.5 624.830078125 l 1
 56 624.830078125 l 1
 83.5 624.830078125 l 1
 89 624.830078125 l 1
 89 618.950195312 l 1
 89 540.549804688 l 1
 100 586.610351562 114.299804688 624.830078125 138.5 624.830078125 c 0
 161.599609375 624.830078125 169.299804688 570.9296875 172.599609375 544.469726562 c 1
 181.400390625 572.889648438 197.900390625 624.830078125 221 624.830078125 c 0
 268.299804688 624.830078125 281.5 505.26953125 281.5 329.849609375 c 2
 281.5 -71.9501953125 l 1
 281.5 -77.830078125 l 1
 276 -77.830078125 l 1
 248.5 -77.830078125 l 1
 243 -77.830078125 l 1
 243 -71.9501953125 l 1
 243 336.709960938 l 2
 243 389.629882812 239.700195312 532.709960938 221 542.509765625 c 1
 212.200195312 536.629882812 185.799804688 483.709960938 185.799804688 336.709960938 c 2
 185.799804688 -71.9501953125 l 1
 185.799804688 -77.830078125 l 1
 180.299804688 -77.830078125 l 1
 151.700195312 -77.830078125 l 1
 146.200195312 -77.830078125 l 1
 146.200195312 -71.9501953125 l 1
 146.200195312 336.709960938 l 2
 146.200195312 364.150390625 146.200195312 510.169921875 134.099609375 537.610351562 c 1
 119.799804688 509.190429688 89 372.969726562 89 336.709960938 c 2
 89 -71.9501953125 l 1
 89 -77.830078125 l 1
 83.5 -77.830078125 l 1
 56 -77.830078125 l 1
 50.5 -77.830078125 l 1
EndSplineSet
EndChar

StartChar: n
Encoding: 110 110 39
Width: 350
VWidth: -75
Flags: HW
LayerCount: 2
Fore
SplineSet
40.0498046875 -77.830078125 m 1
 40.0498046875 -71.9501953125 l 1
 40.0498046875 618.950195312 l 1
 40.0498046875 624.830078125 l 1
 45.5498046875 624.830078125 l 1
 84.0498046875 624.830078125 l 1
 89.5498046875 624.830078125 l 1
 89.5498046875 618.950195312 l 1
 89.5498046875 524.870117188 l 1
 104.950195312 572.889648438 125.849609375 616.009765625 152.25 616.009765625 c 2
 192.950195312 616.009765625 l 2
 250.150390625 616.009765625 280.950195312 509.190429688 280.950195312 319.0703125 c 2
 280.950195312 -71.9501953125 l 5
 280.950195312 -77.830078125 l 5
 275.450195312 -77.830078125 l 5
 249.049804688 -77.830078125 l 5
 243.549804688 -77.830078125 l 5
 243.549804688 -71.9501953125 l 5
 243.549804688 323.969726562 l 2
 243.549804688 447.450195312 230.349609375 559.169921875 192.950195312 560.150390625 c 2
 152.25 560.150390625 l 2
 134.650390625 560.150390625 102.75 468.030273438 89.5498046875 351.41015625 c 1
 89.5498046875 -71.9501953125 l 1
 89.5498046875 -77.830078125 l 1
 84.0498046875 -77.830078125 l 1
 45.5498046875 -77.830078125 l 1
 40.0498046875 -77.830078125 l 1
EndSplineSet
EndChar

StartChar: o
Encoding: 111 111 40
Width: 337
VWidth: -76
Flags: HW
LayerCount: 2
Fore
SplineSet
83.4501953125 144.809570312 m 21
 83.4501953125 37.990234375 103.549804688 -35.509765625 129.950195312 -35.509765625 c 9
 197.049804688 -35.509765625 l 17
 223.450195312 -35.509765625 249.450195312 35.0498046875 249.450195312 144.809570312 c 9
 249.450195312 340.809570312 l 17
 249.450195312 439.790039062 230.049804688 502.509765625 197.049804688 502.509765625 c 9
 129.950195312 502.509765625 l 17
 95.849609375 502.509765625 83.4501953125 442.73046875 83.4501953125 340.809570312 c 13
 83.4501953125 144.809570312 l 21
129.950195312 -117.830078125 m 17
 80.4501953125 -117.830078125 32.0498046875 -50.2099609375 32.0498046875 144.809570312 c 9
 32.0498046875 340.809570312 l 17
 32.0498046875 532.889648438 81.5498046875 584.830078125 131.049804688 584.830078125 c 9
 197.049804688 584.830078125 l 17
 245.450195312 584.830078125 294.950195312 532.889648438 294.950195312 340.809570312 c 9
 294.950195312 144.809570312 l 17
 294.950195312 -50.2099609375 250.950195312 -117.830078125 197.049804688 -117.830078125 c 9
 129.950195312 -117.830078125 l 17
EndSplineSet
EndChar

StartChar: p
Encoding: 112 112 41
Width: 391
VWidth: -49
Flags: HW
LayerCount: 2
Fore
SplineSet
186.200195312 -46.5703125 m 17
 134.5 -46.5703125 113.599609375 40.650390625 113.599609375 90.6298828125 c 9
 113.599609375 367.969726562 l 17
 113.599609375 390.509765625 149.900390625 501.25 186.200195312 501.25 c 13
 214.799804688 501.25 l 21
 262.099609375 501.25 277.5 406.190429688 277.5 372.870117188 c 9
 277.5 90.6298828125 l 17
 277.5 34.76953125 262.099609375 -46.5703125 214.799804688 -46.5703125 c 9
 186.200195312 -46.5703125 l 17
112.5 497.330078125 m 5
 112.5 573.76953125 l 5
 63 573.76953125 l 5
 63 -330.76953125 l 1
 112.5 -330.76953125 l 1
 112.5 -52.4501953125 l 17
 112.5 -37.75 158.700195312 -116.150390625 186.200195312 -116.150390625 c 9
 214.799804688 -116.150390625 l 17
 250 -116.150390625 327 -22.0703125 327 90.6298828125 c 9
 327 373.849609375 l 17
 327 471.849609375 262.099609375 573.76953125 214.799804688 573.76953125 c 13
 186.200195312 573.76953125 l 21
 157.599609375 573.76953125 140 520.849609375 122.400390625 494.389648438 c 13
 112.5 478.709960938 l 5
 112.5 497.330078125 l 5
EndSplineSet
EndChar

StartChar: q
Encoding: 113 113 42
Width: 346
VWidth: -48
Flags: HW
LayerCount: 2
Fore
SplineSet
172.25 43.6103515625 m 2
 210.75 43.6103515625 234.950195312 118.08984375 234.950195312 170.030273438 c 2
 234.950195312 447.370117188 l 2
 234.950195312 468.9296875 194.25 560.0703125 172.25 560.0703125 c 2
 144.75 560.0703125 l 2
 110.650390625 560.0703125 80.9501953125 485.58984375 80.9501953125 452.26953125 c 2
 80.9501953125 170.030273438 l 2
 80.9501953125 113.190429688 110.650390625 43.6103515625 144.75 43.6103515625 c 2
 172.25 43.6103515625 l 2
234.950195312 654.150390625 m 1
 240.450195312 654.150390625 l 1
 267.950195312 654.150390625 l 1
 273.450195312 654.150390625 l 1
 273.450195312 648.26953125 l 1
 273.450195312 -305.26953125 l 1
 273.450195312 -311.150390625 l 1
 267.950195312 -311.150390625 l 1
 240.450195312 -311.150390625 l 1
 234.950195312 -311.150390625 l 1
 234.950195312 -305.26953125 l 1
 234.950195312 6.3701171875 l 1
 223.950195312 -14.2099609375 204.150390625 -47.5302734375 172.25 -47.5302734375 c 2
 144.75 -47.5302734375 l 2
 96.349609375 -47.5302734375 43.5498046875 58.3095703125 43.5498046875 170.030273438 c 2
 43.5498046875 453.25 l 2
 43.5498046875 550.26953125 84.25 654.150390625 144.75 654.150390625 c 2
 172.25 654.150390625 l 2
 204.150390625 654.150390625 221.75 612.990234375 234.950195312 587.509765625 c 1
 234.950195312 648.26953125 l 1
 234.950195312 654.150390625 l 1
EndSplineSet
EndChar

StartChar: r
Encoding: 114 114 43
Width: 339
VWidth: -76
Flags: HW
LayerCount: 2
Fore
SplineSet
90.5 -107.830078125 m 1
 90.5 -101.950195312 l 1
 90.5 588.950195312 l 1
 90.5 594.830078125 l 1
 96 594.830078125 l 1
 123.5 594.830078125 l 1
 129 594.830078125 l 1
 129 588.950195312 l 1
 129 496.830078125 l 1
 145.5 556.610351562 188.400390625 594.830078125 201.599609375 594.830078125 c 9
 230.200195312 594.830078125 l 1
 251.099609375 594.830078125 296.200195312 536.030273438 299.5 528.190429688 c 9
 299.5 519.370117188 299.5 520.349609375 299.5 511.530273438 c 1
 286.666015625 511.530273438 273.833984375 511.530273438 261 511.530273438 c 1
 261 517.41015625 l 17
 261 517.41015625 243.400390625 541.91015625 226.900390625 552.690429688 c 24
 220.299804688 556.610351562 207.099609375 552.690429688 207.099609375 552.690429688 c 17
 187.299804688 552.690429688 140 406.669921875 140 341.009765625 c 9
 129 -101.950195312 l 1
 129 -107.830078125 l 1
 123.5 -107.830078125 l 1
 96 -107.830078125 l 1
 90.5 -107.830078125 l 1
EndSplineSet
EndChar

StartChar: s
Encoding: 115 115 44
Width: 338
VWidth: -76
Flags: HW
LayerCount: 2
Fore
SplineSet
43.5 146.190429688 m 5
 49 146.190429688 l 5
 76.5 146.190429688 l 5
 82 146.190429688 l 5
 82 141.290039062 l 5
 82 82.490234375 l 6
 82 20.75 121.599609375 -14.5302734375 145.799804688 -14.5302734375 c 6
 173.299804688 -14.5302734375 l 6
 222.799804688 -13.5498046875 236 35.4501953125 236 80.5302734375 c 4
 236 217.73046875 133.700195312 186.370117188 76.5 272.610351562 c 4
 53.400390625 307.889648438 43.5 364.73046875 43.5 409.809570312 c 6
 43.5 448.030273438 l 6
 43.5 536.23046875 85.2998046875 604.830078125 145.799804688 604.830078125 c 6
 173.299804688 604.830078125 l 6
 228.299804688 604.830078125 274.5 516.629882812 274.5 424.509765625 c 6
 274.5 357.870117188 l 5
 274.5 351.990234375 l 5
 269 351.990234375 l 5
 241.5 351.990234375 l 5
 236 351.990234375 l 5
 236 357.870117188 l 5
 236 424.509765625 l 6
 236 492.129882812 198.599609375 520.549804688 173.299804688 521.530273438 c 6
 145.799804688 521.530273438 l 6
 96.2998046875 521.530273438 82 478.41015625 82 426.469726562 c 4
 82 289.26953125 186.5 317.690429688 240.400390625 233.41015625 c 4
 262.400390625 199.110351562 274.5 148.150390625 274.5 102.08984375 c 6
 274.5 56.0302734375 l 6
 274.5 -34.1298828125 232.700195312 -97.830078125 173.299804688 -97.830078125 c 6
 145.799804688 -97.830078125 l 6
 91.900390625 -97.830078125 43.5 -11.58984375 43.5 82.490234375 c 6
 43.5 141.290039062 l 5
 43.5 146.190429688 l 5
EndSplineSet
EndChar

StartChar: t
Encoding: 116 116 45
Width: 333
VWidth: -104
Flags: HW
LayerCount: 2
Fore
SplineSet
147.950195312 868.9296875 m 1
 153.450195312 868.9296875 l 1
 202.950195312 868.9296875 l 1
 208.450195312 868.9296875 l 1
 208.450195312 863.049804688 l 1
 208.450195312 583.75 l 1
 277.75 583.75 l 1
 283.25 583.75 l 1
 283.25 577.870117188 l 1
 283.25 499.469726562 l 1
 283.25 494.5703125 l 1
 277.75 494.5703125 l 1
 208.450195312 494.5703125 l 1
 208.450195312 58.4697265625 l 5
 208.450195312 -65.009765625 222.75 -63.0498046875 235.950195312 -63.0498046875 c 9
 288.75 -63.0498046875 l 1
 294.25 -63.0498046875 l 1
 294.25 -67.9501953125 l 1
 294.25 -112.049804688 l 1
 294.25 -117.9296875 l 1
 288.75 -117.9296875 l 1
 211.75 -117.9296875 l 17
 166.650390625 -117.9296875 147.950195312 -66.9697265625 147.950195312 57.490234375 c 13
 147.950195312 494.5703125 l 1
 96.25 494.5703125 l 1
 90.75 494.5703125 l 1
 90.75 499.469726562 l 1
 90.75 577.870117188 l 1
 90.75 582.76953125 l 1
 96.25 582.76953125 l 1
 147.950195312 582.76953125 l 1
 147.950195312 863.049804688 l 1
 147.950195312 868.9296875 l 1
EndSplineSet
EndChar

StartChar: u
Encoding: 117 117 46
Width: 349
VWidth: -76
Flags: HW
LayerCount: 2
Fore
SplineSet
298.950195312 574.830078125 m 5
 298.950195312 568.950195312 l 5
 298.950195312 -111.169921875 l 5
 298.950195312 -117.049804688 l 5
 293.450195312 -117.049804688 l 5
 245.049804688 -117.049804688 l 5
 239.549804688 -117.049804688 l 5
 239.549804688 -111.169921875 l 5
 239.549804688 -14.150390625 l 5
 225.25 -64.1298828125 201.049804688 -127.830078125 174.650390625 -127.830078125 c 6
 135.049804688 -127.830078125 l 6
 77.849609375 -127.830078125 36.0498046875 -12.1904296875 36.0498046875 177.9296875 c 6
 36.0498046875 568.950195312 l 5
 36.0498046875 574.830078125 l 5
 41.5498046875 574.830078125 l 5
 86.650390625 574.830078125 l 5
 92.150390625 574.830078125 l 5
 92.150390625 568.950195312 l 5
 92.150390625 179.889648438 l 6
 92.150390625 58.3701171875 107.549804688 -60.2099609375 135.049804688 -60.2099609375 c 6
 174.650390625 -60.2099609375 l 6
 192.25 -60.2099609375 224.150390625 68.169921875 239.549804688 153.4296875 c 5
 239.549804688 568.950195312 l 5
 239.549804688 574.830078125 l 5
 245.049804688 574.830078125 l 5
 293.450195312 574.830078125 l 5
 298.950195312 574.830078125 l 5
EndSplineSet
EndChar

StartChar: v
Encoding: 118 118 47
Width: 323
VWidth: -75
Flags: HW
LayerCount: 2
Fore
SplineSet
37.5 624.830078125 m 1
 43 624.830078125 l 1
 70.5 624.830078125 l 1
 76 624.830078125 l 1
 76 618.950195312 l 1
 76 550.349609375 l 1
 143.099609375 97.58984375 l 1
 161.799804688 97.58984375 l 1
 230 547.41015625 l 1
 230 618.950195312 l 1
 230 624.830078125 l 1
 235.5 624.830078125 l 1
 263 624.830078125 l 1
 268.5 624.830078125 l 1
 268.5 618.950195312 l 1
 268.5 532.709960938 l 1
 268.5 532.709960938 l 1
 268.5 532.709960938 l 1
 176.099609375 -72.9296875 l 1
 175 -77.830078125 l 1
 170.599609375 -77.830078125 l 1
 134.299804688 -77.830078125 l 1
 128.799804688 -77.830078125 l 1
 128.799804688 -72.9296875 l 1
 37.5 532.709960938 l 1
 37.5 532.709960938 l 1
 37.5 532.709960938 l 1
 37.5 618.950195312 l 1
 37.5 624.830078125 l 1
EndSplineSet
EndChar

StartChar: w
Encoding: 119 119 48
Width: 343
VWidth: -75
Flags: HW
LayerCount: 2
Fore
SplineSet
88.400390625 -77.830078125 m 1
 87.2998046875 -72.9296875 l 1
 45.5 245.5703125 l 1
 45.5 246.549804688 l 1
 45.5 246.549804688 l 1
 45.5 618.950195312 l 1
 45.5 624.830078125 l 1
 51 624.830078125 l 1
 78.5 624.830078125 l 1
 84 624.830078125 l 1
 84 618.950195312 l 1
 84 240.669921875 l 1
 106 70.150390625 l 1
 141.200195312 356.309570312 l 1
 141.200195312 444.509765625 l 1
 141.200195312 449.41015625 l 1
 146.700195312 449.41015625 l 1
 175.299804688 449.41015625 l 1
 180.799804688 449.41015625 l 1
 180.799804688 444.509765625 l 1
 180.799804688 356.309570312 l 1
 216 70.150390625 l 1
 238 240.669921875 l 1
 236.900390625 618.950195312 l 1
 236.900390625 624.830078125 l 1
 242.400390625 624.830078125 l 1
 271 624.830078125 l 1
 276.5 624.830078125 l 1
 276.5 618.950195312 l 1
 276.5 246.549804688 l 1
 276.5 246.549804688 l 1
 276.5 245.5703125 l 1
 234.700195312 -72.9296875 l 1
 234.700195312 -77.830078125 l 1
 229.200195312 -77.830078125 l 1
 201.700195312 -77.830078125 l 1
 197.299804688 -77.830078125 l 1
 196.200195312 -72.9296875 l 1
 161 207.349609375 l 1
 125.799804688 -72.9296875 l 1
 125.799804688 -77.830078125 l 1
 120.299804688 -77.830078125 l 1
 92.7998046875 -77.830078125 l 1
 88.400390625 -77.830078125 l 1
EndSplineSet
EndChar

StartChar: x
Encoding: 120 120 49
Width: 320
VWidth: -75
Flags: HW
LayerCount: 2
Fore
SplineSet
229.900390625 -77.830078125 m 1
 229.900390625 -71.9501953125 l 1
 229.900390625 -9.23046875 l 1
 154 245.5703125 l 1
 75.900390625 -11.1904296875 l 1
 75.900390625 -71.9501953125 l 1
 75.900390625 -77.830078125 l 1
 70.400390625 -77.830078125 l 1
 44 -77.830078125 l 1
 38.5 -77.830078125 l 1
 38.5 -71.9501953125 l 1
 38.5 21.150390625 l 1
 38.5 22.1298828125 l 1
 38.5 23.1103515625 l 1
 129.799804688 321.030273438 l 1
 38.5 617.969726562 l 1
 37.400390625 624.830078125 l 1
 44 624.830078125 l 1
 80.2998046875 624.830078125 l 1
 84.7001953125 624.830078125 l 1
 85.7998046875 620.91015625 l 1
 154 395.509765625 l 1
 221.099609375 620.91015625 l 1
 223.299804688 624.830078125 l 1
 226.599609375 624.830078125 l 1
 262.900390625 624.830078125 l 1
 270.599609375 624.830078125 l 1
 268.400390625 617.969726562 l 1
 178.200195312 321.030273438 l 1
 268.400390625 23.1103515625 l 1
 268.400390625 22.1298828125 l 1
 268.400390625 21.150390625 l 1
 268.400390625 -71.9501953125 l 1
 268.400390625 -77.830078125 l 1
 262.900390625 -77.830078125 l 1
 235.400390625 -77.830078125 l 1
 229.900390625 -77.830078125 l 1
EndSplineSet
EndChar

StartChar: y
Encoding: 121 121 50
Width: 303
VWidth: -48
Flags: HW
LayerCount: 2
Fore
SplineSet
98.7998046875 -151.41015625 m 2
 124.099609375 19.1103515625 l 1
 29.5 647.290039062 l 1
 28.400390625 654.150390625 l 1
 35 654.150390625 l 1
 65.7998046875 654.150390625 l 1
 70.2001953125 654.150390625 l 1
 71.2998046875 649.25 l 1
 145 148.469726562 l 1
 219.799804688 649.25 l 1
 220.900390625 654.150390625 l 1
 225.299804688 654.150390625 l 1
 255 654.150390625 l 1
 261.599609375 654.150390625 l 1
 260.5 647.290039062 l 1
 139.5 -153.370117188 l 2
 126.299804688 -245.490234375 113.099609375 -311.150390625 80.099609375 -311.150390625 c 2
 35 -311.150390625 l 1
 29.5 -311.150390625 l 1
 29.5 -305.26953125 l 1
 29.5 -222.950195312 l 1
 29.5 -217.0703125 l 1
 35 -217.0703125 l 1
 81.2001953125 -217.0703125 l 2
 90 -217.0703125 88.900390625 -207.26953125 98.7998046875 -151.41015625 c 2
EndSplineSet
EndChar

StartChar: z
Encoding: 122 122 51
Width: 333
VWidth: -75
Flags: HW
LayerCount: 2
Fore
SplineSet
271.5 -77.830078125 m 1
 266 -77.830078125 l 1
 46 -77.830078125 l 1
 40.5 -77.830078125 l 1
 40.5 -71.9501953125 l 1
 40.5 23.1103515625 l 1
 40.5 24.08984375 l 1
 40.5 25.0703125 l 1
 222 531.73046875 l 1
 46 531.73046875 l 1
 40.5 531.73046875 l 1
 40.5 536.629882812 l 1
 40.5 618.950195312 l 1
 40.5 624.830078125 l 1
 46 624.830078125 l 1
 266 624.830078125 l 1
 271.5 624.830078125 l 1
 271.5 618.950195312 l 1
 271.5 526.830078125 l 1
 271.5 525.849609375 l 1
 271.5 524.870117188 l 1
 90 15.26953125 l 1
 266 15.26953125 l 1
 271.5 15.26953125 l 1
 271.5 10.3701171875 l 1
 271.5 -71.9501953125 l 1
 271.5 -77.830078125 l 1
EndSplineSet
EndChar

StartChar: zero
Encoding: 48 48 52
Width: 340
VWidth: -115
Flags: HW
LayerCount: 2
Fore
SplineSet
159.700195312 -23.16015625 m 0
 180.599609375 -23.16015625 236.700195312 19.9599609375 236.700195312 214.98046875 c 2
 236.700195312 605.01953125 l 2
 236.700195312 800.040039062 180.599609375 843.16015625 159.700195312 843.16015625 c 0
 138.799804688 843.16015625 82.7001953125 799.059570312 82.7001953125 605.01953125 c 2
 82.7001953125 214.98046875 l 2
 83.7998046875 17.01953125 138.799804688 -23.16015625 159.700195312 -23.16015625 c 0
275.200195312 604.040039062 m 2
 275.200195312 214.98046875 l 2
 275.200195312 20.9404296875 222.400390625 -115.280273438 159.700195312 -115.280273438 c 0
 97 -115.280273438 50.7998046875 21.919921875 50.7998046875 214.98046875 c 2
 50.7998046875 605.01953125 l 2
 50.7998046875 797.099609375 97 935.280273438 159.700195312 935.280273438 c 0
 222.400390625 935.280273438 275.200195312 797.099609375 275.200195312 604.040039062 c 2
EndSplineSet
EndChar

StartChar: one
Encoding: 49 49 53
Width: 214
VWidth: -115
Flags: HW
LayerCount: 2
Fore
SplineSet
151.599609375 935.280273438 m 5
 151.599609375 929.400390625 l 5
 151.599609375 -109.400390625 l 5
 151.599609375 -115.280273438 l 5
 146.099609375 -115.280273438 l 5
 115.900390625 -115.280273438 l 1
 110.400390625 -115.280273438 l 1
 110.400390625 -109.400390625 l 1
 110.400390625 750.259765625 l 1
 39.900390625 741.240234375 l 1
 34.400390625 741.240234375 l 1
 34.400390625 746.139648438 l 1
 34.400390625 792.200195312 l 1
 34.400390625 795.139648438 l 1
 37.7001953125 797.099609375 l 17
 57.5 807.879882812 86.2001953125 836.299804688 91.7001953125 851 c 9
 91.7001953125 851 l 1
 91.7001953125 851.98046875 l 17
 95 860.799804688 107.099609375 930.379882812 107.099609375 930.379882812 c 1
 108.200195312 935.280273438 l 1
 112.599609375 935.280273438 l 1
 146.099609375 935.280273438 l 5
 151.599609375 935.280273438 l 5
EndSplineSet
EndChar

StartChar: two
Encoding: 50 50 54
Width: 327
VWidth: -115
Flags: HWO
LayerCount: 2
Fore
SplineSet
72 -45 m 1
 84 0 254.123046875 566.572265625 268 631 c 1
 285 724 l 1
 286 848 214.450195312 924.400390625 159.25 924.400390625 c 1
 131.75 924.400390625 l 17
 87.650390625 924.400390625 31.5498046875 866.200195312 31.5498046875 721.540039062 c 9
 31.5498046875 635.299804688 l 1
 72.0498046875 635.299804688 l 1
 72.0498046875 721.540039062 l 17
 72.0498046875 804.459960938 104.450195312 882.51953125 131.75 882.51953125 c 9
 159.25 882.51953125 l 1
 201.401367188 881 237 775 231.783203125 734.299804688 c 1
 218.572265625 645 l 17
 210.759765625 607 38.150390625 25.9404296875 31.5498046875 3.400390625 c 1
 31.5498046875 -114.400390625 l 1
 259.450195312 -114.400390625 l 1
 259.450195312 -44.8203125 l 1
 72 -45 l 1
EndSplineSet
EndChar

StartChar: three
Encoding: 51 51 55
Width: 335
VWidth: -115
Flags: HW
LayerCount: 2
Fore
SplineSet
171.25 -43.740234375 m 2
 196.549804688 -43.740234375 226.25 -14.33984375 233.950195312 85.6201171875 c 1
 233.950195312 258.099609375 l 2
 233.950195312 394.3203125 189.950195312 410 152.549804688 409.01953125 c 2
 147.049804688 409.01953125 l 1
 147.049804688 413.919921875 l 1
 147.049804688 493.299804688 l 1
 147.049804688 496.240234375 l 1
 149.25 498.200195312 l 2
 202.049804688 525.639648438 233.950195312 580.51953125 233.950195312 634.419921875 c 2
 233.950195312 734.379882812 l 2
 231.75 818.66015625 186.650390625 859.8203125 171.25 859.8203125 c 2
 143.75 860.799804688 l 2
 128.349609375 860.799804688 79.9501953125 785.33984375 79.9501953125 733.400390625 c 2
 79.9501953125 667.740234375 l 1
 79.9501953125 661.860351562 l 1
 74.4501953125 661.860351562 l 1
 48.0498046875 661.860351562 l 1
 42.5498046875 661.860351562 l 1
 42.5498046875 667.740234375 l 1
 42.5498046875 733.400390625 l 2
 42.5498046875 848.059570312 96.4501953125 935.280273438 143.75 935.280273438 c 2
 171.25 935.280273438 l 2
 211.950195312 935.280273438 272.450195312 854.919921875 272.450195312 735.360351562 c 2
 272.450195312 635.400390625 l 2
 272.450195312 535.440429688 231.75 480.559570312 219.650390625 466.83984375 c 1
 231.75 452.139648438 272.450195312 396.280273438 272.450195312 272.799804688 c 2
 272.450195312 84.6396484375 l 2
 272.450195312 21.919921875 246.049804688 -115.280273438 171.25 -115.280273438 c 2
 143.75 -115.280273438 l 2
 77.75 -115.280273438 42.5498046875 -15.3203125 42.5498046875 86.599609375 c 2
 42.5498046875 151.280273438 l 1
 42.5498046875 157.16015625 l 1
 48.0498046875 157.16015625 l 1
 74.4501953125 157.16015625 l 1
 79.9501953125 157.16015625 l 1
 79.9501953125 151.280273438 l 1
 79.9501953125 86.599609375 l 2
 79.9501953125 40.5400390625 109.650390625 -43.740234375 143.75 -43.740234375 c 2
 171.25 -43.740234375 l 2
EndSplineSet
EndChar

StartChar: four
Encoding: 52 52 56
Width: 316
VWidth: -115
Flags: HW
LayerCount: 2
Fore
SplineSet
242.049804688 935.280273438 m 1
 242.049804688 929.400390625 l 1
 242.049804688 233.599609375 l 1
 262.950195312 233.599609375 l 1
 268.450195312 233.599609375 l 1
 268.450195312 227.719726562 l 1
 268.450195312 158.139648438 l 1
 268.450195312 152.259765625 l 1
 262.950195312 152.259765625 l 1
 242.049804688 152.259765625 l 1
 242.049804688 -109.400390625 l 1
 242.049804688 -115.280273438 l 1
 236.549804688 -115.280273438 l 1
 209.049804688 -115.280273438 l 1
 203.549804688 -115.280273438 l 1
 203.549804688 -109.400390625 l 1
 203.549804688 152.259765625 l 1
 44.0498046875 152.259765625 l 1
 38.5498046875 152.259765625 l 1
 38.5498046875 158.139648438 l 1
 38.5498046875 252.219726562 l 1
 38.5498046875 252.219726562 l 1
 38.5498046875 253.200195312 l 1
 198.049804688 930.379882812 l 1
 199.150390625 935.280273438 l 1
 203.549804688 935.280273438 l 1
 236.549804688 935.280273438 l 1
 242.049804688 935.280273438 l 1
203.549804688 233.599609375 m 1
 203.549804688 769.66015625 l 1
 79.25 233.599609375 l 1
 203.549804688 233.599609375 l 1
EndSplineSet
EndChar

StartChar: five
Encoding: 53 53 57
Width: 337
VWidth: -120
Flags: HW
LayerCount: 2
Fore
SplineSet
243 165.1796875 m 9
 243 276.900390625 l 17
 243 394.5 204.5 473.879882812 164.900390625 473.879882812 c 9
 86.7998046875 473.879882812 l 1
 86.7998046875 415.080078125 l 1
 86.7998046875 409.200195312 l 1
 81.2998046875 409.200195312 l 1
 46 409.200195312 l 1
 40.5 409.200195312 l 1
 40.5 415.080078125 l 1
 40.5 925.66015625 l 1
 40.5 931.540039062 l 1
 46 931.540039062 l 1
 248.5 931.540039062 l 1
 254 931.540039062 l 1
 254 925.66015625 l 1
 254 861.959960938 l 1
 254 857.059570312 l 1
 248.5 857.059570312 l 1
 86.7998046875 857.059570312 l 1
 86.7998046875 548.360351562 l 1
 164.900390625 548.360351562 l 17
 223.200195312 548.360351562 291.5 425.860351562 291.5 276.900390625 c 9
 291.5 164.200195312 l 17
 291.5 48.5595703125 235.299804688 -93.5400390625 177 -93.5400390625 c 9
 148.400390625 -93.5400390625 l 17
 93.400390625 -93.5400390625 40.5 -3.3798828125 40.5 100.5 c 13
 40.5 167.139648438 l 5
 40.5 172.040039062 l 5
 46 172.040039062 l 5
 81.2998046875 172.040039062 l 1
 86.7998046875 172.040039062 l 1
 86.7998046875 167.139648438 l 1
 86.7998046875 100.5 l 17
 86.7998046875 43.66015625 116.5 -22.98046875 148.400390625 -22.98046875 c 9
 177 -22.98046875 l 17
 204.5 -22.98046875 243 68.16015625 243 165.1796875 c 9
EndSplineSet
EndChar

StartChar: six
Encoding: 54 54 58
Width: 351
VWidth: -114
Flags: HW
LayerCount: 2
Fore
SplineSet
85.099609375 151.209960938 m 17
 85.099609375 68.8896484375 122.5 -34.990234375 153.299804688 -34.990234375 c 9
 188.5 -34.990234375 l 17
 219.299804688 -34.990234375 254.5 68.8896484375 254.5 151.209960938 c 9
 254.5 348.190429688 l 17
 254.5 426.58984375 203.900390625 511.849609375 190.700195312 511.849609375 c 9
 153.299804688 511.849609375 l 17
 136.799804688 511.849609375 84 466.76953125 85.099609375 382.490234375 c 9
 85.099609375 151.209960938 l 17
291.900390625 348.190429688 m 9
 291.900390625 150.23046875 l 17
 291.900390625 20.8701171875 257.799804688 -113.389648438 188.5 -113.389648438 c 9
 153.299804688 -113.389648438 l 17
 86.2001953125 -113.389648438 34.099609375 21.849609375 34.099609375 150.23046875 c 13
 34.099609375 671.58984375 l 21
 34.099609375 825.450195312 118.099609375 926.389648438 180.799804688 926.389648438 c 9
 273.200195312 926.389648438 l 1
 278.700195312 926.389648438 l 1
 278.700195312 921.490234375 l 1
 278.700195312 869.549804688 l 1
 278.700195312 863.669921875 l 1
 273.200195312 863.669921875 l 1
 180.799804688 863.669921875 l 17
 146.700195312 863.669921875 82.900390625 784.290039062 82.900390625 672.5703125 c 9
 82.900390625 522.629882812 l 1
 102.700195312 555.950195312 129.099609375 593.190429688 153.299804688 593.190429688 c 9
 190.700195312 593.190429688 l 17
 234.700195312 593.190429688 291.900390625 466.76953125 291.900390625 348.190429688 c 9
EndSplineSet
EndChar

StartChar: seven
Encoding: 55 55 59
Width: 306
VWidth: -115
Flags: HW
LayerCount: 2
Fore
SplineSet
30.4501953125 862.759765625 m 1
 30.4501953125 868.639648438 l 1
 30.4501953125 929.400390625 l 1
 30.4501953125 935.280273438 l 1
 35.9501953125 935.280273438 l 1
 257.049804688 935.280273438 l 1
 262.549804688 935.280273438 l 1
 262.549804688 929.400390625 l 1
 262.549804688 850.01953125 l 1
 262.549804688 849.040039062 l 1
 262.549804688 849.040039062 l 1
 123.950195312 -23.16015625 l 1
 123.950195312 -109.400390625 l 1
 123.950195312 -115.280273438 l 1
 118.450195312 -115.280273438 l 1
 90.9501953125 -115.280273438 l 1
 85.4501953125 -115.280273438 l 1
 85.4501953125 -109.400390625 l 1
 85.4501953125 -1.599609375 l 1
 85.4501953125 -1.599609375 l 1
 85.4501953125 -1.599609375 l 1
 219.650390625 862.759765625 l 1
 35.9501953125 862.759765625 l 1
 30.4501953125 862.759765625 l 1
EndSplineSet
EndChar

StartChar: eight
Encoding: 56 56 60
Width: 352
VWidth: -115
Flags: HW
LayerCount: 2
Fore
SplineSet
122.299804688 475.879882812 m 1
 105.799804688 493.51953125 49.599609375 551.120117188 49.599609375 670.6796875 c 9
 49.599609375 735.360351562 l 17
 49.599609375 809.83984375 93.7001953125 935.280273438 160.799804688 935.280273438 c 9
 191.599609375 935.280273438 l 17
 258.700195312 935.280273438 298.400390625 809.83984375 298.400390625 735.360351562 c 13
 298.400390625 665.6796875 l 21
 298.400390625 547.099609375 230.099609375 491.559570312 213.599609375 474.900390625 c 1
 242.200195312 448.440429688 298.400390625 407.959960938 298.400390625 242.120117188 c 13
 298.400390625 128.33984375 l 21
 298.400390625 -8.8603515625 249.900390625 -115.280273438 187.200195312 -115.280273438 c 9
 160.799804688 -115.280273438 l 17
 105.799804688 -115.280273438 49.599609375 -5.919921875 49.599609375 128.33984375 c 9
 49.599609375 246.040039062 l 17
 49.599609375 413.83984375 102.5 450.400390625 122.299804688 475.879882812 c 1
160.799804688 438.639648438 m 17
 143.200195312 438.639648438 100 378.559570312 100 246.040039062 c 9
 100 129.3203125 l 17
 100 51.900390625 139.900390625 -53.740234375 160.799804688 -53.740234375 c 9
 187.200195312 -53.740234375 l 17
 218 -53.740234375 248 51.900390625 248 129.3203125 c 13
 248 243.099609375 l 21
 248 344.259765625 203.700195312 438.639648438 187.200195312 438.639648438 c 9
 160.799804688 438.639648438 l 17
100.200195312 670.6796875 m 17
 100.200195312 603.059570312 148.700195312 520.959960938 160.799804688 520.959960938 c 9
 187.200195312 520.959960938 l 1
 200.400390625 527.8203125 247 614.719726562 247 665.6796875 c 13
 247 735.360351562 l 21
 247 779.459960938 223.5 865.16015625 187.200195312 865.16015625 c 9
 160.799804688 865.16015625 l 17
 128.900390625 865.16015625 100.200195312 788.280273438 100.200195312 735.360351562 c 9
 100.200195312 670.6796875 l 17
EndSplineSet
EndChar

StartChar: nine
Encoding: 57 57 61
Width: 342
VWidth: -115
Flags: HW
LayerCount: 2
Fore
SplineSet
236.950195312 671.66015625 m 2
 236.950195312 753.98046875 206.150390625 844.139648438 175.349609375 844.139648438 c 2
 133.549804688 844.139648438 l 2
 102.75 844.139648438 84.0498046875 754.959960938 84.0498046875 671.66015625 c 2
 84.0498046875 475.66015625 l 2
 84.0498046875 385.5 113.75 323.759765625 133.549804688 323.759765625 c 2
 175.349609375 323.759765625 l 2
 189.650390625 323.759765625 238.049804688 396.280273438 236.950195312 482.51953125 c 2
 236.950195312 671.66015625 l 2
45.5498046875 474.6796875 m 2
 45.5498046875 671.66015625 l 2
 45.5498046875 800.040039062 64.25 937.240234375 133.549804688 937.240234375 c 2
 175.349609375 937.240234375 l 2
 242.450195312 937.240234375 275.450195312 801.01953125 275.450195312 672.639648438 c 2
 275.450195312 152.259765625 l 2
 275.450195312 -20.2197265625 209.450195312 -115.280273438 146.75 -115.280273438 c 2
 51.0498046875 -117.240234375 l 1
 45.5498046875 -117.240234375 l 1
 45.5498046875 -111.360351562 l 1
 45.5498046875 -29.0400390625 l 1
 45.5498046875 -23.16015625 l 1
 51.0498046875 -23.16015625 l 1
 146.75 -23.16015625 l 2
 192.950195312 -23.16015625 238.049804688 29.759765625 238.049804688 151.280273438 c 2
 238.049804688 299.259765625 l 1
 220.450195312 266.919921875 199.549804688 229.6796875 175.349609375 229.6796875 c 2
 133.549804688 229.6796875 l 2
 81.849609375 229.6796875 45.5498046875 345.3203125 45.5498046875 474.6796875 c 2
EndSplineSet
EndChar

StartChar: exclam
Encoding: 33 33 62
Width: 161
VWidth: -115
Flags: HW
LayerCount: 2
Fore
SplineSet
55.9501953125 8.2001953125 m 1
 101.049804688 8.2001953125 l 1
 106.549804688 8.2001953125 l 1
 106.549804688 2.3203125 l 1
 106.549804688 -115.280273438 l 1
 106.549804688 -120.1796875 l 1
 101.049804688 -120.1796875 l 1
 55.9501953125 -120.1796875 l 1
 50.4501953125 -120.1796875 l 1
 50.4501953125 -115.280273438 l 1
 50.4501953125 2.3203125 l 1
 50.4501953125 8.2001953125 l 1
 55.9501953125 8.2001953125 l 1
59.25 141.48046875 m 1
 59.25 935.280273438 l 1
 59.25 940.1796875 l 1
 64.75 940.1796875 l 1
 92.25 940.1796875 l 1
 97.75 940.1796875 l 1
 97.75 935.280273438 l 1
 97.75 141.48046875 l 1
 97.75 136.580078125 l 1
 92.25 136.580078125 l 1
 64.75 136.580078125 l 1
 59.25 136.580078125 l 1
 59.25 141.48046875 l 1
EndSplineSet
EndChar

StartChar: dollar
Encoding: 36 36 63
Width: 339
VWidth: -115
Flags: HW
LayerCount: 2
Fore
SplineSet
171.799804688 743.200195312 m 1
 171.799804688 796.120117188 l 1
 182.799804688 796.120117188 l 1
 182.799804688 753.98046875 l 1024
240 614.8203125 m 2
 240 709.879882812 207 735.360351562 182.799804688 739.280273438 c 1
 182.799804688 435.48046875 l 1
 203.700195312 416.860351562 223.5 401.1796875 234.5 382.559570312 c 0
 257.599609375 344.33984375 278.5 314.940429688 278.5 245.360351562 c 2
 278.5 177.740234375 l 2
 278.5 47.400390625 238.900390625 -4.5400390625 182.799804688 -7.48046875 c 1
 182.799804688 -109.400390625 l 1
 182.799804688 -115.280273438 l 1
 177.299804688 -115.280273438 l 1
 148.700195312 -115.280273438 l 1
 143.200195312 -115.280273438 l 1
 143.200195312 -109.400390625 l 1
 143.200195312 -6.5 l 1
 90.400390625 -0.6201171875 47.5 79.740234375 47.5 212.040039062 c 2
 47.5 297.299804688 l 1
 47.5 302.200195312 l 1
 53 302.200195312 l 1
 80.5 302.200195312 l 1
 86 302.200195312 l 1
 86 297.299804688 l 1
 86 212.040039062 l 2
 86 125.799804688 120.099609375 91.5 143.200195312 86.599609375 c 1
 143.200195312 360.01953125 l 1
 117.900390625 382.559570312 97 403.139648438 81.599609375 433.51953125 c 0
 56.2998046875 483.5 47.5 520.740234375 47.5 588.360351562 c 2
 47.5 648.139648438 l 2
 47.5 776.51953125 87.099609375 829.440429688 143.200195312 832.379882812 c 1
 143.200195312 929.400390625 l 1
 143.200195312 935.280273438 l 1
 148.700195312 935.280273438 l 1
 177.299804688 935.280273438 l 1
 182.799804688 935.280273438 l 1
 182.799804688 929.400390625 l 1
 182.799804688 832.379882812 l 1
 236.700195312 826.5 278.5 747.120117188 278.5 614.8203125 c 2
 278.5 517.799804688 l 1
 278.5 512.900390625 l 1
 273 512.900390625 l 1
 245.5 512.900390625 l 1
 240 512.900390625 l 1
 240 517.799804688 l 1
 240 614.8203125 l 2
143.200195312 472.719726562 m 1
 143.200195312 743.200195312 l 1
 99.2001953125 739.280273438 86 693.219726562 86 616.780273438 c 0
 86 549.16015625 112.400390625 505.059570312 143.200195312 472.719726562 c 1
182.799804688 324.740234375 m 1
 182.799804688 82.6796875 l 1
 227.900390625 87.580078125 241.099609375 143.440429688 240 209.099609375 c 0
 238.900390625 261.040039062 213.599609375 294.360351562 182.799804688 324.740234375 c 1
EndSplineSet
EndChar

StartChar: comma
Encoding: 44 44 64
Width: 171
VWidth: -28
Flags: HW
LayerCount: 2
Fore
SplineSet
110.905273438 233.306640625 m 1
 110.905273438 60.8271484375 l 2
 110.905273438 3.0068359375 93.3056640625 -35.212890625 76.8056640625 -35.212890625 c 0
 75.705078125 -35.212890625 53.705078125 -39.1328125 48.205078125 -33.2529296875 c 2
 47.10546875 -31.29296875 l 1
 47.10546875 -29.3330078125 l 2
 44.9052734375 68.6669921875 73.505859375 3.9873046875 75.705078125 88.2666015625 c 0
 76.8056640625 104.926757812 59.205078125 127.466796875 59.205078125 127.466796875 c 1
 58.10546875 129.426757812 l 1
 58.10546875 131.38671875 l 1
 58.10546875 233.306640625 l 1
 58.10546875 239.186523438 l 1
 63.60546875 239.186523438 l 1
 105.405273438 239.186523438 l 1
 110.905273438 239.186523438 l 1
 110.905273438 233.306640625 l 1
EndSplineSet
EndChar

StartChar: period
Encoding: 46 46 65
Width: 183
VWidth: -21
Flags: HW
LayerCount: 2
Fore
SplineSet
123.299804688 149.440429688 m 1
 123.299804688 -3.4404296875 l 1
 123.299804688 -9.3203125 l 1
 118.900390625 -9.3203125 l 1
 57.2998046875 -9.3203125 l 1
 50.7001953125 -9.3203125 l 1
 50.7001953125 -3.4404296875 l 1
 50.7001953125 149.440429688 l 1
 50.7001953125 155.3203125 l 1
 57.2998046875 155.3203125 l 1
 118.900390625 155.3203125 l 1
 123.299804688 155.3203125 l 1
 123.299804688 149.440429688 l 1
EndSplineSet
EndChar

StartChar: hyphen
Encoding: 45 45 66
Width: 329
VWidth: -121
Flags: HW
LayerCount: 2
Fore
SplineSet
48.0498046875 474.190429688 m 1
 266.950195312 475.169921875 l 1
 272.450195312 475.169921875 l 1
 272.450195312 469.290039062 l 1
 272.450195312 400.690429688 l 1
 272.450195312 394.809570312 l 1
 266.950195312 394.809570312 l 1
 48.0498046875 393.830078125 l 1
 42.5498046875 393.830078125 l 1
 42.5498046875 399.709960938 l 1
 42.5498046875 468.309570312 l 1
 42.5498046875 474.190429688 l 1
 48.0498046875 474.190429688 l 1
EndSplineSet
EndChar

StartChar: parenleft
Encoding: 40 40 67
Width: 213
VWidth: -118
Flags: HW
LayerCount: 2
Fore
SplineSet
177 -170.120117188 m 1
 171.5 -170.120117188 l 1
 166 -170.120117188 l 1
 166 -169.139648438 l 1
 104.400390625 -152.48046875 41.7001953125 143.48046875 41.7001953125 393.379882812 c 0
 41.7001953125 601.139648438 106.599609375 971.580078125 166 993.139648438 c 1
 166 994.120117188 l 1
 171.5 994.120117188 l 1
 177 994.120117188 l 1
 180.299804688 994.120117188 l 1
 177 987.259765625 l 1
 177 983.33984375 l 1
 174.799804688 983.33984375 l 1
 139.599609375 908.860351562 80.2001953125 638.379882812 80.2001953125 397.299804688 c 0
 80.2001953125 100.360351562 131.900390625 -61.33984375 174.799804688 -159.33984375 c 1
 177 -159.33984375 l 1
 177 -163.259765625 l 1
 179.200195312 -170.120117188 l 1
 177 -170.120117188 l 1
EndSplineSet
EndChar

StartChar: parenright
Encoding: 41 41 68
Width: 212
VWidth: -114
Flags: HW
LayerCount: 2
Fore
SplineSet
28.349609375 971.419921875 m 1
 39.349609375 971.419921875 l 1
 39.349609375 960.639648438 l 1
 28.349609375 960.639648438 l 1
 28.349609375 971.419921875 l 1
44.849609375 -147.740234375 m 1
 93.25 -106.580078125 152.650390625 162.919921875 152.650390625 401.059570312 c 0
 152.650390625 596.080078125 92.150390625 894.98046875 45.9501953125 951.8203125 c 1
 82.25 863.620117188 136.150390625 634.299804688 136.150390625 404 c 0
 136.150390625 114.900390625 87.75 -48.759765625 44.849609375 -147.740234375 c 1
28.349609375 -152.639648438 m 1
 39.349609375 -152.639648438 l 1
 39.349609375 -163.419921875 l 1
 28.349609375 -163.419921875 l 1
 28.349609375 -152.639648438 l 1
EndSplineSet
EndChar

StartChar: asterisk
Encoding: 42 42 69
Width: 266
VWidth: -113
Flags: HW
LayerCount: 2
Fore
SplineSet
146.700195312 389.280273438 m 1
 222.599609375 164.860351562 l 1
 206.099609375 114.879882812 l 1
 143.400390625 300.099609375 l 1
 143.400390625 300.099609375 143.400390625 295.200195312 143.400390625 293.240234375 c 2
 143.400390625 -1.740234375 l 1
 112.599609375 -3.7001953125 l 1
 112.599609375 301.080078125 l 1
 110.400390625 297.16015625 l 1
 51 111.940429688 l 1
 33.400390625 162.900390625 l 1
 109.299804688 389.280273438 l 1
 110.400390625 396.139648438 l 1
 109.299804688 404.959960938 l 1
 34.5 625.459960938 l 1
 52.099609375 674.459960938 l 1
 110.400390625 500.01953125 l 1
 112.599609375 495.120117188 l 1
 112.599609375 809.700195312 l 1
 143.400390625 809.700195312 l 1
 143.400390625 499.040039062 l 1
 143.400390625 500.01953125 l 1
 206.099609375 681.3203125 l 1
 222.599609375 630.360351562 l 1
 146.700195312 404.959960938 l 1
 145.599609375 396.139648438 l 1
 146.700195312 389.280273438 l 1
EndSplineSet
EndChar

StartChar: numbersign
Encoding: 35 35 70
Width: 302
VWidth: -112
Flags: HW
LayerCount: 2
Fore
SplineSet
66.900390625 -40.9501953125 m 1
 84.5 -40.9501953125 l 1
 84.5 208.950195312 l 1
 84.5 214.830078125 l 1
 90 214.830078125 l 1
 145 214.830078125 l 1
 150.5 214.830078125 l 1
 150.5 208.950195312 l 1
 150.5 -40.9501953125 l 1
 167 -40.9501953125 l 1
 167 208.950195312 l 1
 167 214.830078125 l 1
 172.5 214.830078125 l 1
 242.900390625 214.830078125 l 1
 242.900390625 286.370117188 l 1
 203.299804688 286.370117188 l 1
 197.799804688 286.370117188 l 1
 197.799804688 292.25 l 1
 197.799804688 493.150390625 l 1
 197.799804688 499.030273438 l 1
 203.299804688 499.030273438 l 1
 242.900390625 499.030273438 l 1
 242.900390625 570.5703125 l 1
 226.400390625 570.5703125 l 1
 220.900390625 570.5703125 l 1
 220.900390625 575.469726562 l 1
 220.900390625 845.950195312 l 1
 204.400390625 845.950195312 l 1
 204.400390625 575.469726562 l 1
 204.400390625 570.5703125 l 1
 198.900390625 570.5703125 l 1
 143.900390625 570.5703125 l 1
 138.400390625 570.5703125 l 1
 138.400390625 575.469726562 l 1
 138.400390625 845.950195312 l 1
 121.900390625 845.950195312 l 1
 121.900390625 575.469726562 l 1
 121.900390625 570.5703125 l 1
 116.400390625 570.5703125 l 1
 47.099609375 570.5703125 l 1
 47.099609375 499.030273438 l 1
 92.2001953125 499.030273438 l 1
 97.7001953125 499.030273438 l 1
 97.7001953125 493.150390625 l 1
 97.7001953125 292.25 l 1
 97.7001953125 286.370117188 l 1
 92.2001953125 286.370117188 l 1
 47.099609375 284.41015625 l 1
 47.099609375 214.830078125 l 1
 61.400390625 214.830078125 l 1
 66.900390625 214.830078125 l 1
 66.900390625 208.950195312 l 1
 66.900390625 -40.9501953125 l 1
175.799804688 286.370117188 m 1
 119.700195312 286.370117188 l 1
 114.200195312 286.370117188 l 1
 114.200195312 292.25 l 1
 114.200195312 493.150390625 l 1
 114.200195312 499.030273438 l 1
 119.700195312 499.030273438 l 1
 175.799804688 499.030273438 l 1
 181.299804688 499.030273438 l 1
 181.299804688 493.150390625 l 1
 181.299804688 292.25 l 1
 181.299804688 286.370117188 l 1
 175.799804688 286.370117188 l 1
EndSplineSet
EndChar

StartChar: colon
Encoding: 58 58 71
Width: 188
VWidth: -98
Flags: HW
LayerCount: 2
Fore
SplineSet
127.299804688 679.8203125 m 1
 127.299804688 534.780273438 l 1
 127.299804688 529.879882812 l 1
 121.799804688 529.879882812 l 1
 60.2001953125 529.879882812 l 1
 54.7001953125 529.879882812 l 1
 54.7001953125 534.780273438 l 1
 54.7001953125 679.8203125 l 1
 54.7001953125 684.719726562 l 1
 60.2001953125 684.719726562 l 1
 121.799804688 684.719726562 l 1
 127.299804688 684.719726562 l 1
 127.299804688 679.8203125 l 1
125.099609375 105.540039062 m 1
 125.099609375 -23.8203125 l 1
 125.099609375 -28.7197265625 l 1
 119.599609375 -28.7197265625 l 1
 60.2001953125 -28.7197265625 l 1
 54.7001953125 -28.7197265625 l 1
 54.7001953125 -23.8203125 l 1
 54.7001953125 105.540039062 l 1
 54.7001953125 111.419921875 l 1
 60.2001953125 111.419921875 l 1
 119.599609375 111.419921875 l 1
 125.099609375 111.419921875 l 1
 125.099609375 105.540039062 l 1
EndSplineSet
EndChar

StartChar: slash
Encoding: 47 47 72
Width: 261
VWidth: -120
Flags: HW
LayerCount: 2
Fore
SplineSet
53.400390625 -165.25 m 1
 28.099609375 -128.009765625 l 1
 27 -126.049804688 l 1
 27 -124.08984375 l 1
 188.700195312 983.309570312 l 1
 190.900390625 998.009765625 l 1
 198.599609375 985.26953125 l 1
 223.900390625 945.08984375 l 1
 225 944.110351562 l 1
 225 942.150390625 l 1
 63.2998046875 -163.290039062 l 1
 61.099609375 -177.009765625 l 1
 53.400390625 -165.25 l 1
EndSplineSet
EndChar
